<?xml version="1.0" encoding="UTF-8" standalone="no"?><svg xmlns="http://www.w3.org/2000/svg" xmlns:xlink="http://www.w3.org/1999/xlink" contentScriptType="text/ecmascript" fill="#000000" width="100" zoomAndPan="magnify" contentStyleType="text/css" viewBox="0.0 0.0 100.0 100.0" height="100" preserveAspectRatio="xMidYMid meet" version="1"><g fill="#e19251" id="change1_1"><circle fill="inherit" r="44.622" cx="50.002" cy="49.997"/><path fill="inherit" d="M49.998,99.997C22.427,99.997,0,77.57,0,49.998C0,22.428,22.427,0,49.998,0C77.569,0,100,22.428,100,49.998 C100,77.57,77.572,99.997,49.998,99.997z M49.998,3.427c-25.677,0-46.571,20.892-46.571,46.571 c0,25.684,20.895,46.572,46.571,46.572c25.684,0,46.575-20.889,46.575-46.572C96.576,24.319,75.681,3.427,49.998,3.427z"/></g><g id="change2_1"><path fill="#ffffff" d="M32.58,27.454c1.155,0.003,2.39-0.107,3.718-0.328c1.329-0.225,2.53-0.605,3.621-1.151 c1.081-0.546,1.991-1.292,2.718-2.238c0.726-0.951,1.087-2.172,1.094-3.672l18.593,0.064l-0.127,39.908 c-0.007,1.794,0.421,2.965,1.291,3.514c0.87,0.556,1.988,0.83,3.354,0.837l2.733,0.007l-0.057,14.898L33.26,79.179l0.05-14.895 l3.213,0.007c1.419,0.007,2.47-0.436,3.155-1.332c0.687-0.9,1.031-1.867,1.034-2.915l0.063-19.312l-8.231-0.027L32.58,27.454z"/></g></svg>