<?xml version="1.0" encoding="UTF-8" standalone="no"?><svg xmlns="http://www.w3.org/2000/svg" xmlns:xlink="http://www.w3.org/1999/xlink" contentScriptType="text/ecmascript" fill="#000000" width="100" zoomAndPan="magnify" contentStyleType="text/css" viewBox="0.0 0.0 100.0 100.0" height="100" preserveAspectRatio="xMidYMid meet" version="1"><g fill="#e19251" id="change1_1"><circle fill="inherit" r="44.622" cx="50.002" cy="49.997"/><path fill="inherit" d="M49.998,99.997C22.427,99.997,0,77.57,0,49.998C0,22.428,22.427,0,49.998,0C77.569,0,100,22.428,100,49.998 C100,77.57,77.572,99.997,49.998,99.997z M49.998,3.427c-25.677,0-46.571,20.892-46.571,46.571 c0,25.684,20.895,46.572,46.571,46.572c25.684,0,46.575-20.889,46.575-46.572C96.576,24.319,75.681,3.427,49.998,3.427z"/></g><g id="change2_1"><path fill="#ffffff" d="M36.917,67.015c0.539-0.669,1.252-1.398,2.139-2.182c0.884-0.79,1.904-1.526,3.059-2.205 c1.151-0.673,2.453-1.249,3.902-1.714c1.448-0.462,3.028-0.692,4.741-0.686c1.74,0.007,3.213,0.104,4.417,0.294 c1.205,0.194,2.303,0.385,3.293,0.596c0.991,0.201,1.925,0.401,2.808,0.589c0.88,0.194,1.854,0.288,2.929,0.295 c2.034,0.007,3.634-0.436,4.781-1.312c1.161-0.877,1.737-2.523,1.744-4.933l7.91,0.029c-0.013,5.11-0.508,9.17-1.479,12.182 c-0.978,3.005-2.303,5.294-3.982,6.854c-1.673,1.559-3.668,2.55-5.97,2.971c-2.303,0.422-4.766,0.63-7.389,0.623 c-2.085-0.007-4.103-0.211-6.044-0.623c-1.938-0.408-3.798-0.85-5.578-1.328c-1.78-0.476-3.48-0.924-5.094-1.339 c-1.619-0.421-3.139-0.639-4.558-0.646c-1.228,0-2.202,0.164-2.911,0.499c-0.713,0.334-1.282,0.683-1.71,1.057 c-0.512,0.459-0.9,0.951-1.171,1.489l-9.199-0.033c0.013-4.019,0.479-7.492,1.378-10.414c0.907-2.932,2.108-5.484,3.601-7.663 c1.496-2.175,3.203-4.042,5.117-5.602c1.921-1.56,3.872-2.929,5.856-4.1s3.932-2.222,5.853-3.152 c1.917-0.934,3.621-1.888,5.109-2.874c1.489-0.987,2.685-2.055,3.584-3.206c0.897-1.148,1.353-2.51,1.359-4.09 c0.007-2.358-0.904-4.112-2.734-5.271c-1.83-1.157-4.029-1.74-6.599-1.746c-1.82-0.011-3.454,0.12-4.902,0.385 c-1.446,0.264-2.825,0.726-4.14,1.392c1.633,0.485,3.048,1.269,4.246,2.343c1.205,1.074,1.797,2.657,1.79,4.745 c-0.003,0.934-0.214,1.837-0.629,2.711c-0.418,0.866-1.027,1.659-1.816,2.382c-0.79,0.72-1.791,1.278-2.995,1.677 c-1.212,0.398-2.573,0.593-4.1,0.589c-1.151-0.003-2.336-0.194-3.551-0.572c-1.215-0.375-2.312-0.983-3.289-1.816 c-0.974-0.83-1.773-1.921-2.396-3.26c-0.626-1.342-0.934-2.975-0.927-4.906c0.01-2.569,0.699-4.922,2.068-7.061 c1.372-2.139,3.293-3.985,5.763-5.545c2.469-1.56,5.431-2.751,8.888-3.584s7.245-1.241,11.367-1.229 c4.391,0.014,8.259,0.499,11.599,1.442c3.347,0.947,6.151,2.249,8.42,3.905c2.269,1.653,3.982,3.574,5.127,5.76 c1.138,2.185,1.706,4.524,1.699,7.011c-0.007,2.998-0.502,5.501-1.469,7.506c-0.967,2.004-2.282,3.657-3.932,4.966 c-1.653,1.312-3.548,2.379-5.689,3.216c-2.148,0.837-4.396,1.569-6.76,2.205c-2.359,0.64-4.741,1.269-7.147,1.884 c-2.413,0.623-4.705,1.402-6.88,2.35c-2.172,0.947-4.15,2.115-5.931,3.514c-1.783,1.396-3.205,3.199-4.253,5.384L36.917,67.015z"/></g></svg>