<?xml version="1.0" encoding="UTF-8" standalone="no"?><svg xmlns="http://www.w3.org/2000/svg" xmlns:xlink="http://www.w3.org/1999/xlink" contentScriptType="text/ecmascript" fill="#000000" width="332.8" zoomAndPan="magnify" contentStyleType="text/css" viewBox="-14.3 -14.2 332.8 514.2" height="514.2" preserveAspectRatio="xMidYMid meet" version="1"><g id="change1_1"><path fill="#a5593c" d="M283,156.2c-21.5,4.8-34.6,20.9-45.9,34.1c0,0,0,0,0,0l-32.5,33c4.8-5,21.4-23.4,24-40.7 c3.1-20.2-18.2-29.2-26.1-2.4c-7.9,26.8-4.7,38.3,0.8,44.4l-36.8,40.5c3.1-8,12.2-33.4,7.7-46.1c-5.3-15.2-21.5-13.9-21.9,10.2 c-0.4,23.2,2.3,37.1,12,38.2L143,291c2.4-8,4.5-19.2,1.7-28.2c-5-15.8-9-40.9-17.7-35.8c-11.2,6.5-13.8,11.3-11,36.4 c2.2,20.4,13.6,31.4,19.6,35.8L104.8,333c3-7.6,7.7-24,0.6-41.5c-9.3-23.2-24.4-21.7-23.7-6.6c-1-0.1-2-0.3-3.1-0.4 c-12.2-1.4-20.6-0.5-26.5,1.4c1.7-6.4,3.5-12.7,5.2-19c14.4,0.4,49.5,0.4,48.5-8.8c-1.4-12-4.8-13.5-27.2-8.6 c-8.4,1.8-14.3,4.7-18.5,7.6c4.6-15.9,9.4-31.4,14.4-46c8,4.1,27.1,11.5,45.6,0.5c24.2-14.5,3.3-18.7-3.4-18.7 c-5.8,0-27-2.5-36.7,2.7c3.1-8.4,6.2-16.4,9.3-23.9c0.5-1.2,1-2.4,1.5-3.6c12.2,2.4,54.3,9.3,54.9-8.3c0.6-18.9-38.2-11.9-48.8-6.3 c7-17.3,12.3-31.5,16.4-43.2c15.7,1.5,50.4,3.7,50.4-6.8c0-10.2-4.2-9.9-24.8-10.2c-9-0.1-16.5,2.9-22,6.4c4-12.4,6.3-21.2,7.5-27.4 c2.4,1,5.2,0.7,7.3-1l25.6-20.2c42-33.1,30.6-65.3-0.6-44.5c-19.1,12.6-30.2,38.7-36.1,57.1c-0.6,1.9-0.4,3.9,0.5,5.6 c-2.8,7.1-6.8,17.3-11.6,29.7c3.5-11.3,7.7-29.6,4.6-44.6c-4.8-23.4-29-26.2-26.2,6.2c2.8,32,10.1,43.8,17.6,48.8 c-5.9,15.4-12.7,33.3-19.8,52.5c-0.4-12.9-2.3-37.8-10.2-48.6c-11-15-26.2-8.1-17.2,18.8c8,24,15.4,38.2,24.3,38.5 c-3.9,10.6-7.9,21.5-11.8,32.6c-0.2-9.2-1.7-27.6-9.7-39.1c-11-15.9-24.5-42.4-31-33.8c-8.3,11-9,17.2,3.4,44.1 c11.4,24.8,29.6,32.2,35.4,34c-5.9,16.7-11.8,33.4-17.2,49.6c-0.4-10.2-3.2-27.7-15.4-43c-18.6-23.4-33.1-15.2-24.8,2.4 c7.5,16.1,24.9,53,36.7,51.1c-3,9.1-5.8,17.8-8.4,26.3c-3.8-13.3-15-45.2-33.7-35.2c-20.4,10.9,16.2,50,30.5,45.7 c-3.5,11.7-6.4,22.4-8.6,31.8C8.1,421.2,4.3,487.7,4.3,487.7L5.6,500c0,0,4.7-28,13-69.1l64.6-68.2c9.6,5,54.9,28.2,58.4,21.1 c0,0,13.7-7.5-19.5-21.5c-17.3-7.3-27.6-7.1-33.5-5.3l18.8-19.9c12.5,4.2,46.1,14.7,48.2,6.8c2.6-10-0.1-12.2-22.2-14.6 c-8.4-0.9-14.8-0.2-19.5,0.9l27.1-28.6c5.2,5.1,21,18.1,42.8,14.2c26.9-4.9,9.1-14,2.8-15.9c-5.7-1.7-26.7-10.7-36.6-7.7l22.6-23.8 c12.3,6.1,45.4,21.1,51.3,7.8c6.3-14.2-27.1-19.7-40.7-19l27.8-29.4c14.4,5.8,44.1,16.5,47.4,8.2c3.3-8.2-0.6-9-19.5-15.1 c-7.2-2.3-14.1-2.3-19.9-1.4l17.3-18.2c0.8,0.3,1.8,0.3,3-0.1l30-9C318.5,177.4,318.4,148.4,283,156.2z M48.6,299.7 c9.3,1.8,23.8,4.3,35.8,5.4c2.7,15.8,7.4,33.2,16,32.9l-15.2,16.8l-3.6,3.5c0.8-7.3,3.7-44.5-19.4-41.4c-23.4,3.2,1.2,49.2,15.6,45 l-56.2,54.6C28.7,382.1,37.9,340.8,48.6,299.7z"/></g></svg>