<?xml version="1.0" encoding="UTF-8" standalone="no"?><svg xmlns="http://www.w3.org/2000/svg" xmlns:xlink="http://www.w3.org/1999/xlink" contentScriptType="text/ecmascript" fill="#000000" width="565.4" zoomAndPan="magnify" contentStyleType="text/css" viewBox="-15.4 -22.7 565.4 544.3" height="544.3" preserveAspectRatio="xMidYMid meet" version="1"><g id="change1_1"><path fill="#e19251" d="M152.4,7.3c67.5-30,299.1,36.5,346.5,116.7s51.1,135,21.9,215.3S419,477.9,345.9,488.8 S167,521.6,101.3,441.4S10.1,353.8,6.5,321S-15.4,186.1,32,113.1S86.7,36.5,152.4,7.3z"/></g><g id="change2_1"><path fill="#e8985d" d="M141.1,134.5c48.3-21.5,214.1,26.1,248.1,83.5s36.6,96.6,15.7,154.1s-72.9,99.2-125.3,107 s-128.1,23.5-175.1-33.9S39.3,382.5,36.7,359S21,262.4,55,210.2S94.1,155.4,141.1,134.5z"/></g></svg>