<?xml version="1.0" encoding="UTF-8" standalone="no"?><svg xmlns="http://www.w3.org/2000/svg" xmlns:xlink="http://www.w3.org/1999/xlink" contentScriptType="text/ecmascript" fill="#000000" width="100" zoomAndPan="magnify" contentStyleType="text/css" viewBox="0.0 0.0 100.0 100.0" height="100" preserveAspectRatio="xMidYMid meet" version="1"><g fill="#e19251" id="change1_1"><circle fill="inherit" r="44.622" cx="50.002" cy="49.997"/><path fill="inherit" d="M49.998,99.997C22.427,99.997,0,77.566,0,49.998C0,22.428,22.427,0,49.998,0 C77.569,0,100,22.428,100,49.998C100.003,77.566,77.572,99.997,49.998,99.997z M49.998,3.427 c-25.677,0-46.571,20.892-46.571,46.571c0,25.681,20.895,46.572,46.571,46.572c25.684,0,46.575-20.892,46.575-46.572 C96.573,24.319,75.681,3.427,49.998,3.427z"/></g><g id="change2_1"><path fill="#ffffff" d="M46.344,29.305c-2.754-0.011-4.805,0.284-6.147,0.883c-1.345,0.596-2.349,1.161-3.018,1.697 c0.562,0.053,1.185,0.197,1.867,0.428c0.679,0.231,1.309,0.565,1.884,1.008c0.575,0.441,1.054,1.051,1.438,1.813 c0.389,0.763,0.579,1.72,0.572,2.871c-0.006,2.142-0.779,3.855-2.322,5.134c-1.546,1.281-3.801,1.914-6.776,1.903 c-1.419-0.003-2.771-0.228-4.056-0.672c-1.281-0.449-2.419-1.121-3.406-2.021c-0.987-0.896-1.768-2.012-2.34-3.34 c-0.568-1.328-0.853-2.888-0.847-4.682c0.007-2.513,0.643-4.802,1.911-6.86c1.265-2.058,3.075-3.828,5.438-5.304 c2.359-1.476,5.214-2.606,8.563-3.387c3.354-0.779,7.111-1.161,11.288-1.147c3.453,0.01,6.854,0.284,10.199,0.816 c3.347,0.532,6.314,1.433,8.908,2.7c2.594,1.269,4.682,2.932,6.268,5c1.587,2.064,2.376,4.598,2.363,7.596 c-0.014,3.748-1.132,6.757-3.36,9.025c-2.229,2.27-5.595,3.771-10.093,4.505l-0.003,0.441c4.497,0.552,8.125,2.021,10.893,4.414 c2.764,2.393,4.133,5.836,4.119,10.333c-0.007,1.928-0.519,3.889-1.543,5.877c-1.027,1.994-2.7,3.794-5.039,5.407 c-2.333,1.616-5.388,2.932-9.17,3.966c-3.777,1.034-8.409,1.539-13.897,1.522c-5.22-0.021-9.65-0.582-13.288-1.693 c-3.641-1.107-6.593-2.53-8.861-4.264s-3.912-3.701-4.923-5.896c-1.01-2.206-1.509-4.425-1.499-6.673 c0.004-1.794,0.285-3.407,0.834-4.836c0.555-1.432,1.318-2.627,2.282-3.587c0.967-0.961,2.091-1.68,3.379-2.158 c1.285-0.476,2.641-0.713,4.06-0.71c1.817,0.007,3.347,0.254,4.578,0.736c1.225,0.485,2.212,1.104,2.941,1.857 c0.732,0.749,1.265,1.576,1.6,2.473c0.334,0.9,0.498,1.764,0.495,2.597c-0.007,2.245-0.689,3.966-2.045,5.174 c-1.358,1.198-2.851,2.048-4.487,2.553c2.671,1.641,6.281,2.47,10.832,2.486c3.748,0.011,6.499-0.688,8.259-2.102 c1.761-1.415,2.641-3.446,2.647-6.094c0.003-1.314-0.248-2.436-0.773-3.376c-0.519-0.938-1.208-1.696-2.058-2.275 c-0.856-0.579-1.831-1.004-2.928-1.275c-1.098-0.271-2.195-0.408-3.293-0.411l-2.852-0.011l0.03-8.714l2.852,0.011 c2.649,0.006,4.634-0.643,5.949-1.948c1.315-1.309,1.975-2.844,1.981-4.614c0.003-1.362-0.255-2.517-0.776-3.457 c-0.519-0.937-1.198-1.684-2.041-2.235c-0.841-0.549-1.838-0.934-2.985-1.151C48.806,29.418,47.605,29.308,46.344,29.305z"/></g></svg>