<?xml version="1.0" encoding="UTF-8" standalone="no"?><svg xmlns="http://www.w3.org/2000/svg" xmlns:xlink="http://www.w3.org/1999/xlink" contentScriptType="text/ecmascript" fill="#000000" width="104" zoomAndPan="magnify" contentStyleType="text/css" viewBox="15.9 3.3 104.0 129.1" height="129.1" data-name="Layer 1" preserveAspectRatio="xMidYMid meet" version="1"><g id="change1_1"><path d="M76.53,47l.51-.51,3.9.71c.77-3.4,3.37-5.37,5.06-7.94a21.24,21.24,0,0,0,1.5-2.39c.81-1.72,2.19-3.06,3.09-4.67a31.52,31.52,0,0,1,3.52-4.55c1.27-1.56,2.24-3.37,3.46-5A16.34,16.34,0,0,1,100,20.62a5.21,5.21,0,0,1,.79-2.07,38.53,38.53,0,0,0,5.55-7.15A15.85,15.85,0,0,1,111.76,6c2.24-1.42,4.86-2.65,8.09-1.52-1.18,2.46-.49,5.54-2.46,8-.43.54-.48,1-1.33,1.15-.45,0-1.21.77-1.17,1.12.23,2.06-1.83,3-2.19,4.71-2-.25-1.26,3.12-3.54,2.8-.31-.05-.89,1.23-1.19,2-.7,1.72-1.53,3.3-3.31,4.14.65,1.85-2.1.93-2,2.55a7.94,7.94,0,0,1-.83,2.77l-2.61,1.65.82.91c-5,4-7.32,9.86-11,14.8a1.57,1.57,0,0,0,.23.23A22.84,22.84,0,0,1,97.62,65c.35,1.76,1.56,3.36,2,5.18A13.79,13.79,0,0,1,99.7,72c.47,5.18,2.3,10.28.8,15.58-.21.73.43,1.66.44,2.5s-.69,2.13-.36,2.41c1.49,1.3-1.94,2.87.33,3.93-1.93,1.92.25,4.68-1.37,6.67.83,1.05-.11,2.23.19,3.28s-1.5,2.23.35,3.05a7.23,7.23,0,0,0-.52,1.41c-.09.73.47,1.42-.21,2.25-.25.3.92,1.85.7,2.07-1,1-.13,1.61.07,2.37s.39,1.51.55,2.14l-5.34,2.81-.89-.59c-1.21.34-2.65.34-3.44,1.06-1.11,1-2.15-1.39-3.1.3-.7,1.25-2-1.29-2.94.19-1.74-1.89-1.87,1.75-2.71,1-2,0-3.61-.43-4.83.08-3.86,1.63-8.15,1.56-12.17,3.12l-1.43-.78-2,1.86-.71-.71-2.71,1.39c-.31-.17-1.07-.69-1.13-.62-1.32,1.55-3.66,0-4.91,1.65-1.64-1.16-2.78.38-4.16.71-.61.15-1.76-.64-2-.39-1.38,1.47-3.22,0-4.8,1-1.11.74-3,.34-4.53.38-1.71.05-3.43,0-5.1,0-2.46-1.45-4.86-2.9-7.3-4.29-1.27-.73-1.6-1.68-1-3.2l-2-1.87c-.25-.45-.37-.57-.36-.69.17-3.75-1.71-7.17-1.7-10.88,0-.32.5-.64.69-.87a17.15,17.15,0,0,1-1.51-4.08c-.27-2.46.21-5-.93-7.37,1.08-1.48-.13-3-.06-4.44,0-.7-.61-1.43-.92-2.09l1-1c-.28-.32-.77-.62-.79-1a17.58,17.58,0,0,1,0-4.29c.24-1.24-1-2.19-.18-3.66.61-1.09-.29-3,.2-4.19,1.64-4.18,2.24-8.82,5.52-12.33,3.69-4,6-6.27,11.65-8,4.33-1.31,8.49-3.79,12.7-3.17,3.65-1.33,6.18-3.71,9.46-4.54s6.65-2.09,10.21-2.37c2.45-.2,4.85-1,7.38-.83.41,0,.87-.58,1.44-1ZM24.66,75.71c-.7,2.91.76,6-1,8.7,1.57,1.85.5,4,.8,6.07s2,3.65.86,5.81c1.21,1.11.53,2.67.94,3.91.49,1.46,1.1,2.9.73,4.38s.77,2.31.41,3.73.23,2.82.52,4.23c.61,3,.74,6.14,2.44,9,1.26,2.14,2.82,3,4.89,2.76,1.72-.2,3.36-.57,5.05.1l1.81-1.7c.22.22.46.62.62.59,2.6-.46,5.2-.95,7.79-1.49,1-.21,2.08-.86,3.08-.77,1.48.13,2.59-.81,3.94-.94,1-.1,1.94-.45,3-.48,1.27,0,2.51-.79,3.79-1.12,1.83-.46,3.67-.82,5.51-1.23,1.65-.36,3.1-2.18,5-.71L82.35,114l.78.73,7.54-1.7c0-2.62-.61-5.28.18-7.42a5.21,5.21,0,0,0-.38-4.87l1.56-.57a12.8,12.8,0,0,0-.56-3.48c-.61-1.31,1.58-2.41,0-3.67L93,91.55a.91.91,0,0,0,.13-.3l-.77-4.12c.28-.32.56-.63.76-.87-.26-.49-.76-1-.72-1.42.13-1.35.8-2.68,0-4,1.2-1.48-.13-2.95-.08-4.44a16.5,16.5,0,0,0-.83-4.78c-.14-.54-1.19-.88-.16-1.54-1-2.09-.55-4.76-2.59-6.51a3.55,3.55,0,0,1-1.41-2.35c.2-2-1.21-2.71-2.26-3.77-1.49,1.45-3,2.86-3,5.2,0,.74-.53,2-.93,2.09-2.63.33-2.72,2.84-3.07,4.29s-2.18.78-1.93,2.42l.81,1.13-1.68.6c.24,1.48-1,2.39-1.5,3.55a38.1,38.1,0,0,1-1.68,4c-1.8,3.43-4.26,6.62-3.7,10.66l-1.46,1.37c-.47,3.21-.88,6.07-1.27,8.76L63,105.36c-2.39.36-4.68.41-6.44-1C55,101,53.28,98,52.06,94.79c-1.31-3.42-3.61-6.22-5.29-9.4A93.56,93.56,0,0,0,41,76.69c1.05-1.47-1.29-3.25.1-4.52H46c.9,1.58,1.44,3.5,2.7,4.5,1.5,1.2,2.44,2.77,3.77,4.06s1.67,3.09,2.94,4.08c1.53,1.2,1.24,3.52,3.18,4.32,2.23-2.76,2.21-6.52,4.15-9.46s3-6.47,4.61-9.68,4.07-5.67,4.78-9l1.35-.51-.84-1.12L74,59c.3-.88.58-1.77.92-2.63s.82-1.9,1.32-3c-4,1.6-4,1.6-5,3.09l-.6-.61c-.69,1.11-1.84-.46-2.85.61-.62.66-2.24.42-3.45.8-2.44.76-5,1.08-7.56,1.82-1.19.35-2.65-.23-3.82.14a26.9,26.9,0,0,0-3.47.9c-1.13.56-2.26-.15-3.35.66-.89.66-2.29.61-3.45.94-2.3.66-4.61,1.3-6.88,2a13.84,13.84,0,0,0-3.23,1.52c-2.27,1.52-3.28,4.33-5.73,5.7-.24.14-.61.44-.58.6.16.91-1.24,1.75-.14,2.68C25.62,74.76,25.11,75.27,24.66,75.71Z"/></g></svg>