<?xml version="1.0" encoding="UTF-8" standalone="no"?><svg xmlns="http://www.w3.org/2000/svg" xmlns:xlink="http://www.w3.org/1999/xlink" contentScriptType="text/ecmascript" fill="#000000" width="182" zoomAndPan="magnify" contentStyleType="text/css" viewBox="122.2 119.3 182.0 186.3" height="186.3" preserveAspectRatio="xMidYMid meet" version="1.1">
 <g id="surface1">
  <g id="change1_1"><path fill="#ffffff" d="m255.84 137.98s-3.53-2.86-6.7-4.95c-13.21-8.73-25.55-11.69-36.54-11.48-10.99-0.21-23.33 2.75-36.54 11.48-3.17 2.09-6.7 4.95-6.7 4.95-46.75 40.77-15.22 90.41 5.47 112.44 0.97 1.03 1.9 1.99 2.78 2.89 4.79 5.44 14.46 18.5 18.37 38.91h33.25c3.89-20.41 13.57-33.47 18.36-38.91 0.89-0.9 1.82-1.86 2.78-2.89 20.69-22.03 52.22-71.67 5.47-112.44"/></g>
  <path fill="none" stroke-width="40" stroke-miterlimit="10" d="m2558.4 2872.2s-35.3 28.6-67 49.5c-132.1 87.3-255.5 116.9-365.4 114.8-109.9 2.1-233.3-27.5-365.4-114.8-31.7-20.9-67-49.5-67-49.5-467.5-407.7-152.2-904.1 54.7-1124.4 9.7-10.3 19-19.9 27.8-28.9 47.9-54.4 144.6-185 183.7-389.1h332.5c38.9 204.1 135.7 334.7 183.6 389.1 8.9 9 18.2 18.6 27.8 28.9 206.9 220.3 522.2 716.7 54.7 1124.4z" transform="matrix(.1 0 0 -.1 0 425.2)" stroke="#040200"/>
  <g id="change1_2"><path stroke-linecap="round" transform="matrix(.1 0 0 -.1 0 425.2)" fill="#ffffff" stroke-linejoin="round" d="m1922.8 1935s111.5-118 85.3-456.7" stroke="#040200" stroke-width="40" stroke-miterlimit="10"/></g>
  <g id="change1_3"><path stroke-linecap="round" transform="matrix(.1 0 0 -.1 0 425.2)" fill="#ffffff" stroke-linejoin="round" d="m2309.6 1935s-122.8-120.5-96.3-456.7" stroke="#040200" stroke-width="40" stroke-miterlimit="10"/></g>
  <g id="change1_4"><path fill="#ffffff" d="m238.7 291.79c0 2.32-1.88 4.2-4.2 4.2h-43.41c-2.32 0-4.21-1.88-4.21-4.2s1.89-4.2 4.21-4.2h43.41c2.32 0 4.2 1.88 4.2 4.2"/></g>
  <path fill="none" stroke-width="40" stroke-miterlimit="10" d="m2387 1334.1c0-23.2-18.8-42-42-42h-434.1c-23.2 0-42.1 18.8-42.1 42s18.9 42 42.1 42h434.1c23.2 0 42-18.8 42-42z" transform="matrix(.1 0 0 -.1 0 425.2)" stroke="#040200"/>
  <g id="change1_5"><path fill="#ffffff" d="m238.7 283.98c0 2.32-1.88 4.2-4.2 4.2h-43.41c-2.32 0-4.21-1.88-4.21-4.2 0-2.33 1.89-4.21 4.21-4.21h43.41c2.32 0 4.2 1.88 4.2 4.21"/></g>
  <path fill="none" stroke-width="40" stroke-miterlimit="10" d="m2387 1412.2c0-23.2-18.8-42-42-42h-434.1c-23.2 0-42.1 18.8-42.1 42 0 23.3 18.9 42.1 42.1 42.1h434.1c23.2 0 42-18.8 42-42.1z" transform="matrix(.1 0 0 -.1 0 425.2)" stroke="#040200"/>
  <g id="change1_6"><path fill="#ffffff" d="m238.7 277.14c0 2.32-1.88 4.2-4.2 4.2h-43.41c-2.32 0-4.21-1.88-4.21-4.2s1.89-4.2 4.21-4.2h43.41c2.32 0 4.2 1.88 4.2 4.2"/></g>
  <path fill="none" stroke-width="40" stroke-miterlimit="10" d="m2387 1480.6c0-23.2-18.8-42-42-42h-434.1c-23.2 0-42.1 18.8-42.1 42s18.9 42 42.1 42h434.1c23.2 0 42-18.8 42-42z" transform="matrix(.1 0 0 -.1 0 425.2)" stroke="#040200"/>
  <g id="change1_7"><path fill="#ffffff" d="m238.7 299.46c0 2.32-1.88 4.2-4.2 4.2h-43.41c-2.32 0-4.21-1.88-4.21-4.2s1.89-4.21 4.21-4.21h43.41c2.32 0 4.2 1.89 4.2 4.21"/></g>
  <path fill="none" stroke-width="40" stroke-miterlimit="10" d="m2387 1257.4c0-23.2-18.8-42-42-42h-434.1c-23.2 0-42.1 18.8-42.1 42s18.9 42.1 42.1 42.1h434.1c23.2 0 42-18.9 42-42.1z" transform="matrix(.1 0 0 -.1 0 425.2)" stroke="#040200"/>
  <g id="change1_8"><path fill="#ffffff" d="m223.89 148.15c2.65 0 5.02 1.15 6.58 2.96 1.03-0.31 2.12-0.48 3.27-0.48 5.52 0 10 3.84 10 8.58 0 0.08-0.01 0.16-0.02 0.24 2.96 1.3 4.98 3.93 4.98 6.98 0 1.68-0.63 3.24-1.68 4.52 2.81 1.9 4.62 4.84 4.62 8.14 0 1.73-0.5 3.35-1.36 4.78 4.73 2.06 7.98 6.26 7.98 11.13 0 4.74-3.07 8.86-7.6 10.97 0.63 1.26 0.98 2.64 0.98 4.1 0 2.93-1.43 5.58-3.71 7.47 0.49 0.96 0.77 2.03 0.77 3.15 0 3.28-2.35 6.09-5.69 7.26 0.47 0.99 0.73 2.07 0.73 3.21 0 4.74-4.48 8.58-10 8.58-1.62 0-3.15-0.34-4.51-0.93-1.46 1.12-3.32 1.8-5.34 1.8-4.69 0-8.5-3.6-8.5-8.03v-76.4c0-4.44 3.81-8.03 8.5-8.03"/></g>
  <path fill="none" stroke-width="40" stroke-miterlimit="10" d="m2238.9 2770.5c26.5 0 50.2-11.5 65.8-29.6 10.3 3.1 21.2 4.8 32.7 4.8 55.2 0 100-38.4 100-85.8 0-0.8-0.1-1.6-0.2-2.4 29.6-13 49.8-39.3 49.8-69.8 0-16.8-6.3-32.4-16.8-45.2 28.1-19 46.2-48.4 46.2-81.4 0-17.3-5-33.5-13.6-47.8 47.3-20.6 79.8-62.6 79.8-111.3 0-47.4-30.7-88.6-76-109.7 6.3-12.6 9.8-26.4 9.8-41 0-29.3-14.3-55.8-37.1-74.7 4.9-9.6 7.7-20.3 7.7-31.5 0-32.8-23.5-60.9-56.9-72.6 4.7-9.9 7.3-20.7 7.3-32.1 0-47.4-44.8-85.8-100-85.8-16.2 0-31.5 3.4-45.1 9.3-14.6-11.2-33.2-18-53.4-18-46.9 0-85 36-85 80.3v764c0 44.4 38.1 80.3 85 80.3z" transform="matrix(.1 0 0 -.1 0 425.2)" stroke="#040200"/>
  <g id="change1_9"><path stroke-linecap="round" transform="matrix(.1 0 0 -.1 0 425.2)" fill="#ffffff" stroke-linejoin="round" d="m2304.5 2731.8s36.6-36.1-9-72.3" stroke="#040200" stroke-width="40" stroke-miterlimit="10"/></g>
  <g id="change1_10"><path stroke-linecap="round" transform="matrix(.1 0 0 -.1 0 425.2)" fill="#ffffff" stroke-linejoin="round" d="m2308.5 1946.1s32.8-39.3-16.3-71.2" stroke="#040200" stroke-width="40" stroke-miterlimit="10"/></g>
  <g id="change1_11"><path stroke-linecap="round" transform="matrix(.1 0 0 -.1 0 425.2)" fill="#ffffff" stroke-linejoin="round" d="m2427.6 2660.1s-38.4 21.8-64-5.5" stroke="#040200" stroke-width="40" stroke-miterlimit="10"/></g>
  <g id="change1_12"><path stroke-linecap="round" transform="matrix(.1 0 0 -.1 0 425.2)" fill="#ffffff" stroke-linejoin="round" d="m2473.2 2082.7c-8.4 15.2-25.2 30.5-58.1 33.1" stroke="#040200" stroke-width="40" stroke-miterlimit="10"/></g>
  <g id="change1_13"><path stroke-linecap="round" transform="matrix(.1 0 0 -.1 0 425.2)" fill="#ffffff" stroke-linejoin="round" d="m2558 2232.6s-60.5-89.4-172.1-21" stroke="#040200" stroke-width="40" stroke-miterlimit="10"/></g>
  <g id="change1_14"><path stroke-linecap="round" transform="matrix(.1 0 0 -.1 0 425.2)" fill="#ffffff" stroke-linejoin="round" d="m2430.4 1908.9s34.7 72-62.1 124.7" stroke="#040200" stroke-width="40" stroke-miterlimit="10"/></g>
  <g id="change1_15"><path stroke-linecap="round" transform="matrix(.1 0 0 -.1 0 425.2)" fill="#ffffff" stroke-linejoin="round" d="m2511.5 2490.4s-24.7 92.5-143.2 52.7" stroke="#040200" stroke-width="40" stroke-miterlimit="10"/></g>
  <g id="change1_16"><path stroke-linecap="round" transform="matrix(.1 0 0 -.1 0 425.2)" fill="#ffffff" stroke-linejoin="round" d="m2482.2 2393.1s-31.6-35-83.5-16.6" stroke="#040200" stroke-width="40" stroke-miterlimit="10"/></g>
  <g id="change1_17"><path fill="#ffffff" d="m201.32 148.15c-2.66 0-5.03 1.15-6.59 2.96-1.02-0.31-2.12-0.48-3.27-0.48-5.52 0-10 3.84-10 8.58 0 0.08 0.01 0.16 0.02 0.24-2.96 1.3-4.98 3.93-4.98 6.98 0 1.68 0.62 3.24 1.68 4.52-2.81 1.9-4.62 4.84-4.62 8.14 0 1.73 0.5 3.35 1.36 4.78-4.73 2.06-7.98 6.26-7.98 11.13 0 4.74 3.07 8.86 7.6 10.97-0.63 1.26-0.98 2.64-0.98 4.1 0 2.93 1.43 5.58 3.71 7.47-0.49 0.96-0.77 2.03-0.77 3.15 0 3.28 2.35 6.09 5.69 7.26-0.46 0.99-0.73 2.07-0.73 3.21 0 4.74 4.48 8.58 10 8.58 1.62 0 3.15-0.34 4.51-0.93 1.46 1.12 3.32 1.8 5.35 1.8 4.68 0 8.48-3.6 8.48-8.03v-76.4c0-4.44-3.8-8.03-8.48-8.03"/></g>
  <path fill="none" stroke-width="40" stroke-miterlimit="10" d="m2013.2 2770.5c-26.6 0-50.3-11.5-65.9-29.6-10.2 3.1-21.2 4.8-32.7 4.8-55.2 0-100-38.4-100-85.8 0-0.8 0.1-1.6 0.2-2.4-29.6-13-49.8-39.3-49.8-69.8 0-16.8 6.2-32.4 16.8-45.2-28.1-19-46.2-48.4-46.2-81.4 0-17.3 5-33.5 13.6-47.8-47.3-20.6-79.8-62.6-79.8-111.3 0-47.4 30.7-88.6 76-109.7-6.3-12.6-9.8-26.4-9.8-41 0-29.3 14.3-55.8 37.1-74.7-4.9-9.6-7.7-20.3-7.7-31.5 0-32.8 23.5-60.9 56.9-72.6-4.6-9.9-7.3-20.7-7.3-32.1 0-47.4 44.8-85.8 100-85.8 16.2 0 31.5 3.4 45.1 9.3 14.6-11.2 33.2-18 53.5-18 46.8 0 84.8 36 84.8 80.3v764c0 44.4-38 80.3-84.8 80.3z" transform="matrix(.1 0 0 -.1 0 425.2)" stroke="#040200"/>
  <g id="change1_18"><path stroke-linecap="round" transform="matrix(.1 0 0 -.1 0 425.2)" fill="#ffffff" stroke-linejoin="round" d="m1947.6 2731.8s-36.6-36.1 9-72.3" stroke="#040200" stroke-width="40" stroke-miterlimit="10"/></g>
  <g id="change1_19"><path stroke-linecap="round" transform="matrix(.1 0 0 -.1 0 425.2)" fill="#ffffff" stroke-linejoin="round" d="m1943.5 1946.1s-32.8-39.3 16.3-71.2" stroke="#040200" stroke-width="40" stroke-miterlimit="10"/></g>
  <g id="change1_20"><path stroke-linecap="round" transform="matrix(.1 0 0 -.1 0 425.2)" fill="#ffffff" stroke-linejoin="round" d="m1824.5 2660.1s38.3 21.8 63.9-5.5" stroke="#040200" stroke-width="40" stroke-miterlimit="10"/></g>
  <g id="change1_21"><path stroke-linecap="round" transform="matrix(.1 0 0 -.1 0 425.2)" fill="#ffffff" stroke-linejoin="round" d="m1778.8 2082.7c8.4 15.2 25.1 30.5 58.1 33.1" stroke="#040200" stroke-width="40" stroke-miterlimit="10"/></g>
  <g id="change1_22"><path stroke-linecap="round" transform="matrix(.1 0 0 -.1 0 425.2)" fill="#ffffff" stroke-linejoin="round" d="m1693.9 2232.6s60.6-89.4 172.3-21" stroke="#040200" stroke-width="40" stroke-miterlimit="10"/></g>
  <g id="change1_23"><path stroke-linecap="round" transform="matrix(.1 0 0 -.1 0 425.2)" fill="#ffffff" stroke-linejoin="round" d="m1821.6 1908.9s-34.7 72 62.1 124.7" stroke="#040200" stroke-width="40" stroke-miterlimit="10"/></g>
  <g id="change1_24"><path stroke-linecap="round" transform="matrix(.1 0 0 -.1 0 425.2)" fill="#ffffff" stroke-linejoin="round" d="m1740.5 2490.4s24.7 92.5 143.2 52.7" stroke="#040200" stroke-width="40" stroke-miterlimit="10"/></g>
  <g id="change1_25"><path stroke-linecap="round" transform="matrix(.1 0 0 -.1 0 425.2)" fill="#ffffff" stroke-linejoin="round" d="m1769.8 2393.1s31.6-35 83.5-16.6" stroke="#040200" stroke-width="40" stroke-miterlimit="10"/></g>
  <path stroke-linecap="round" transform="matrix(.1 0 0 -.1 0 425.2)" fill="none" stroke-linejoin="round" d="m2126 2954.9v-87.6" stroke="#040200" stroke-width="40" stroke-miterlimit="10"/>
  <g id="change1_26"><path stroke-linecap="round" transform="matrix(.1 0 0 -.1 0 425.2)" fill="#ffffff" stroke-linejoin="round" d="m1708.7 2774.6l62.5-61.2" stroke="#040200" stroke-width="40" stroke-miterlimit="10"/></g>
  <g id="change1_27"><path stroke-linecap="round" transform="matrix(.1 0 0 -.1 0 425.2)" fill="#ffffff" stroke-linejoin="round" d="m1901.4 2894.3l29.9-82.3" stroke="#040200" stroke-width="40" stroke-miterlimit="10"/></g>
  <g id="change1_28"><path stroke-linecap="round" transform="matrix(.1 0 0 -.1 0 425.2)" fill="#ffffff" stroke-linejoin="round" d="m2355.8 2894.3l-29.9-82.3" stroke="#040200" stroke-width="40" stroke-miterlimit="10"/></g>
  <g id="change1_29"><path stroke-linecap="round" transform="matrix(.1 0 0 -.1 0 425.2)" fill="#ffffff" stroke-linejoin="round" d="m2544.7 2774.6l-62.5-61.2" stroke="#040200" stroke-width="40" stroke-miterlimit="10"/></g>
 </g>
</svg>