<?xml version="1.0" encoding="UTF-8" standalone="no"?><svg xmlns="http://www.w3.org/2000/svg" xmlns:xlink="http://www.w3.org/1999/xlink" contentScriptType="text/ecmascript" fill="#000000" width="100" zoomAndPan="magnify" contentStyleType="text/css" viewBox="0.0 0.0 100.0 100.0" height="100" preserveAspectRatio="xMidYMid meet" version="1"><g fill="#e19251" id="change1_1"><circle fill="inherit" r="44.622" cx="50.002" cy="49.997"/><path fill="inherit" d="M49.998,99.997C22.427,99.997,0,77.57,0,49.998C0,22.428,22.427,0,49.998,0C77.569,0,100,22.428,100,49.998 C100,77.57,77.572,99.997,49.998,99.997z M49.998,3.427c-25.677,0-46.571,20.892-46.571,46.571 c0,25.677,20.895,46.572,46.571,46.572c25.684,0,46.575-20.896,46.575-46.572C96.576,24.319,75.681,3.427,49.998,3.427z"/></g><g id="change2_1"><path fill="#ffffff" d="M19.639,45.481l25.988-27.059l22.287,0.07l-0.098,30.603l9.039,0.03l-0.033,8.714l-9.035-0.033 l-0.004,1.402c-0.003,0.937,0.063,1.643,0.194,2.107c0.134,0.473,0.364,0.816,0.699,1.031c0.338,0.218,0.753,0.338,1.245,0.361 c0.495,0.033,1.064,0.047,1.706,0.047l1.888,0.007l-0.05,14.901l-33.772-0.107l0.054-14.898l2.366,0.007 c1.419,0.007,2.339-0.308,2.758-0.937c0.411-0.629,0.625-1.466,0.629-2.503l0.003-1.489l-25.9-0.084L19.639,45.481z M30.552,48.975 l14.979,0.047l0.05-16.022L30.552,48.975z"/></g></svg>