<?xml version="1.0" encoding="UTF-8" standalone="no"?><svg xmlns="http://www.w3.org/2000/svg" xmlns:xlink="http://www.w3.org/1999/xlink" contentScriptType="text/ecmascript" fill="#000000" width="2360" zoomAndPan="magnify" contentStyleType="text/css" viewBox="62.6 23.5 2360.0 2451.0" height="2451" preserveAspectRatio="xMidYMid meet" version="1"><g><g id="change1_1"><path d="M1356.7,2474.5c-62.1,0-180.3-8-249.2-40.4c-41.7-19.6-62.9-127.4-78.3-397.8c-1.1-19.5,5.2-36.9,18.6-51.7 c34.3-37.6,112.3-55.9,260.6-61l0,0c147.6-5.2,327.5,7.4,345.5,95.7c9.7,47.8-9.3,198.9-31.4,362.7l-3.6,26.8 c-3.3,24.9-24.1,50.4-233,64.9C1378.8,2474.2,1368.8,2474.5,1356.7,2474.5z M1361,1964.5c-16.2,0-33.3,0.3-51.1,0.9l0,0 c-48,1.7-194,6.7-231.1,47.3c-5.7,6.3-8.2,13-7.7,21c16.9,295.8,41.4,354,54.5,362.4c70.6,33.2,210.9,38.9,257.5,35.7 c154.2-10.7,188.1-27.3,194.8-32.1l3.2-23.4c14.3-106.2,41-303.9,31.8-348.8C1606.2,1994.9,1525.6,1964.5,1361,1964.5z M1309.2,1944.5L1309.2,1944.5L1309.2,1944.5z"/></g><g id="change1_7"><path d="M1054.8,2130.8c-7.7,0-15.1-4.2-18.7-11.6c-5.2-10.3-1-22.9,9.3-28.1c213.6-107.2,566.2-38.5,581.1-35.6 c11.4,2.3,18.7,13.3,16.4,24.6c-2.3,11.3-13.3,18.7-24.6,16.5c-3.5-0.7-353.4-68.8-554.1,31.9 C1061.1,2130.1,1057.9,2130.8,1054.8,2130.8z"/></g><g id="change1_6"><path d="M1151.3,2219.6c-8.7,0-16.8-5.5-19.8-14.1c-3.8-10.9,2-22.9,13-26.6c194.4-67.1,469.8-20.3,481.5-18.3 c11.4,2,19,12.8,17.1,24.2c-2,11.4-12.9,19.1-24.2,17.1c-2.8-0.5-276.5-46.9-460.6,16.6 C1155.8,2219.2,1153.5,2219.6,1151.3,2219.6z"/></g><g id="change1_12"><path d="M1613.7,2310.3c-2,0-4.1-0.3-6.2-0.9c-2.3-0.7-140.3-41.6-320.6-10c-11.4,2-22.3-5.6-24.3-17s5.6-22.3,17-24.3 c191.4-33.5,334.2,9.4,340.2,11.3c11.1,3.4,17.3,15.1,13.9,26.2C1630.9,2304.5,1622.6,2310.3,1613.7,2310.3z"/></g><g id="change1_9"><path d="M1546.2,1967.6c-32.9-109.9,15.6-221.1,62-295.1c23.3-37.1,49.9-72.2,75.6-106.2c32.2-42.5,65.4-86.5,91.2-133.2 c59.4-107.6,81.5-233.6,62.1-354.9c-16.4-103-63.1-200.1-131.4-273.2c-110.6-118.4-285.6-181.9-468.3-170 c-86.2,5.6-210.3,30.2-311.7,115c-98.2,82.2-159,212.9-162.6,349.8c-3.4,128.7,41.4,261.1,126.2,372.8 c24.8,32.7,53.2,63.9,80.7,94.1c34.3,37.7,69.8,76.6,99.6,119.7c66.1,95.4,88.5,197.8,61.3,281l-39.8-13 c23.1-70.6,2.7-159.6-55.9-244.1c-28.3-40.8-62.8-78.7-96.2-115.3c-28.1-30.9-57.2-62.8-83.1-97 c-90.5-119.2-138.4-261-134.7-399.2C725.3,950,791.7,807.7,899,717.9c110.1-92.1,243.4-118.6,335.9-124.7 c195-12.7,382.6,55.7,501.7,183.2c73.9,79.2,124.4,184,142.1,295.2c20.8,130.5-2.9,266.1-66.8,381.8 c-27.3,49.4-61.4,94.5-94.5,138.2c-25.2,33.3-51.3,67.7-73.6,103.2c-41.8,66.6-85.7,165.9-57.4,260.8L1546.2,1967.6z"/></g><g id="change1_5"><path d="M1389.1,1959.6c-25.4-94.1-16.8-263.8,29.1-374.4c-23.6-4-45.1-10.9-60.8-19.9c-2.5-1.4-4.9-2.9-7.2-4.3 c-30.7,16-66.2,24.8-103,24.9c-0.4,0-0.7,0-1.1,0c36.3,111.2,43.3,237.5,20,370.5l-41.3-7.2c23.3-133.4,14.7-259.1-24.7-368 c-41-8.3-78.2-27.7-106-55.9c-9.6-9.7-22.1-24.9-21.2-45.2c0.7-14.4,8.5-27.4,21.6-35.6c15.4-9.7,36-11.5,52.4-4.6 c23.1,9.7,50.7,34.9,61.6,56.1c7.9,15.4,15.2,31.2,21.8,47.3c5.5,0.5,10.9,0.6,16.5,0.7c23.2-0.1,45.8-4.3,66.2-12.2 c-27-27.2-42.6-59.8-43.5-92.9c-0.8-31.9,16.5-65.1,44.2-84.6c23.4-16.5,50.6-20.6,74.7-11.3c34.3,13.2,56.8,50.7,54.7,91.2 c-2.1,39.7-24.9,71-43.7,90.2c-3.3,3.4-6.8,6.7-10.4,9.9c13.4,5.4,30.5,9.3,48.6,11.4c11.8-19.9,25.4-36.2,40.7-47.8 c29-21.9,61.6-22.5,80.9-13.3c14,6.6,22.6,18.9,23.1,32.7c0.8,21.8-10.2,40.8-30.9,53.3c-22.4,13.5-55.3,19.1-89.2,18.7 c-43.4,94.9-58.6,264.1-32.9,359.4L1389.1,1959.6z M1532.6,1520.8c-7.5,0-18.1,2.3-28.8,10.4c-5.4,4.1-10.5,9.1-15.5,15.1 c16.5-1.7,31.3-5.4,41.6-11.7c8-4.8,10.1-9.4,10.6-12.7C1538.8,1521.3,1536,1520.8,1532.6,1520.8z M1125.6,1477.6 c-3.1,0-6.3,0.8-8.8,2.3c-1.2,0.8-2.1,1.7-2.1,2.1c0,1,0.5,5,9.2,13.8c15.3,15.5,34.4,27.7,55.6,35.9c-2.6-5.6-5.4-11.1-8.2-16.6 c-6.5-12.6-26.6-30.7-40.6-36.6C1129.2,1477.9,1127.5,1477.6,1125.6,1477.6z M1362.4,1380c-10.3,0-19.2,4.9-24.3,8.6 c-16.3,11.5-26.9,31.3-26.4,49.3c0.6,25.6,15.3,51.5,40.3,72.7c6.4-4.7,12.3-9.9,17.8-15.5c19.4-19.9,30.7-42.4,31.8-63.2 c1.1-21.9-10.9-43.3-27.9-49.9C1369.7,1380.6,1366,1380,1362.4,1380z"/></g><g id="change1_13"><path d="M2132.6,1361.2c12.9-11.2,30.4-7.3,45.1-2.8c70.2,21.6,140.5,43.2,210.7,64.7c12.8,3.9,26.9,9.1,31.9,22.5 c2.2,5.9,2.3,12.7,1.9,19.4c-2,36.8-27.7,100.4-98.2,80.2C2293.8,1536.6,2042.3,1439.4,2132.6,1361.2z"/></g><g id="change1_4"><path d="M1626.5,385.8c-9-12.4-4.3-29.6,0.8-44.1c24.3-69.3,48.6-138.5,72.8-207.8c4.4-12.6,10-26.5,22.3-31.7 c5.4-2.3,11.5-2.5,17.3-2.4c32.5,1,116.2,52.9,81.4,107.4C1804.3,233.8,1689.3,472.4,1626.5,385.8z"/></g><g id="change1_10"><path d="M1090.3,251.8c1.3,16.8,2.5,34-2.4,50.1c-4.9,16.1-17.3,31-33.9,33.9c-15,2.6-30.4-5.1-40.8-16.3 c-10.4-11.2-16.7-25.4-22.9-39.4c-18.9-42.7-37.7-85.4-56.6-128.2c-13.9-31.4-27.1-70.4-6.3-97.8c10.2-13.5,26.8-20.7,43.3-24.7 c22-5.4,46.1-5.9,66.5,3.8C1097.5,61.9,1085.8,196.4,1090.3,251.8z"/></g><g id="change1_11"><path d="M2176.3,768.5c-16.2,2.1-32.8,4.2-49.4,1.1s-33.1-12.5-38.6-26.1c-5-12.3,0.1-25.6,9.4-34.9c9.3-9.3,22.2-15.5,34.8-21.4 c38.7-18.3,77.4-36.6,116.2-54.9c28.5-13.5,64.5-26.8,94.6-11.2c14.9,7.7,24.6,21,31.2,34.4c8.8,18,13.2,37.9,7,55.5 C2363.2,762.8,2229.8,761.4,2176.3,768.5z"/></g><g id="change1_8"><path d="M630.5,579.3c-13,29-58.6,13.1-88.1,6.5c-63.2-14.2-125.9-32-187.6-53.4c-15.2-5.3-33-14-35.6-32.6 c-1.5-10.5,2.5-20.9,6.8-30.3c31.8-71,55-86,120.1-54.7C503.4,442.6,656.7,521,630.5,579.3z"/></g><g id="change1_2"><path d="M428.4,1030.2c-0.1,29.2-126.5,51.3-201.3,55c-27,1.4-100.3,3.6-121.5-13.1c-21.3-16.8-43-102-13.7-118.6 C145.4,923.3,428.6,923.3,428.4,1030.2z"/></g><g id="change1_3"><path d="M472.4,1654.7c-19.5,18.1-39.2,36.5-62.8,48.7c-23.6,12.3-64.1,24.9-88.4-2.9c-19.5-22.3-21.7-59.4-2.5-77.9 c63.7-61.5,137.6-98.9,199.2-108.9C645.7,1493.1,503.2,1626.1,472.4,1654.7z"/></g></g></svg>