<?xml version="1.0" encoding="UTF-8" standalone="no"?><svg xmlns="http://www.w3.org/2000/svg" xmlns:xlink="http://www.w3.org/1999/xlink" contentScriptType="text/ecmascript" fill="#000000" width="231.9" zoomAndPan="magnify" contentStyleType="text/css" viewBox="96.7 97.8 231.9 229.5" height="229.5" preserveAspectRatio="xMidYMid meet" version="1.1">
 <g id="surface1">
  <g id="change1_1"><path fill="#ffffff" d="m210.15 266.98c-1.66 0-3.22 0.4-4.64 1.12v-0.01l-0.03 0.03c-1.02 0.51-1.95 1.19-2.77 2-8.04 4.97-12-0.58-13.07-2.53v-33.22h-32.61s-9.08-3.78-3.14-13.38c0.81-0.83 1.48-1.76 2-2.77l0.02-0.03c0.71-1.42 1.12-2.99 1.12-4.64 0-6.23-5.64-11.28-12.6-11.28-6.97 0-12.61 5.05-12.61 11.28 0 1.65 0.41 3.22 1.13 4.64h-0.01l0.02 0.03c0.52 1.01 1.2 1.94 2.01 2.77 5.93 9.6-3.15 13.38-3.15 13.38h-32.605v90.42h90.425v-33.22c1.07-1.94 5.03-7.5 13.07-2.53 0.82 0.81 1.75 1.49 2.77 2l0.03 0.03v-0.01c1.42 0.72 2.98 1.13 4.64 1.13 6.23 0 11.28-5.65 11.28-12.61s-5.05-12.6-11.28-12.6"/></g>
  <g id="change2_1"><path fill="#040505" d="m210.15 266.98v-2.5c-2.07-0.01-4.03 0.51-5.77 1.39l1.13 2.23 2.17-1.24v-0.01c-0.37-0.64-1-1.08-1.72-1.22-0.71-0.13-1.46 0.06-2.03 0.52l-0.03 0.03 1.58 1.94-1.14-2.23c-1.25 0.64-2.39 1.47-3.39 2.45l1.76 1.78-1.32-2.12c-2.07 1.27-3.61 1.63-4.75 1.64-0.68-0.01-1.25-0.13-1.76-0.34-0.76-0.3-1.41-0.82-1.93-1.38-0.53-0.56-0.91-1.16-1.13-1.54l-2.18 1.21h2.5v-33.22c0-0.66-0.27-1.3-0.73-1.77-0.47-0.46-1.11-0.73-1.77-0.73h-32.61v2.5l0.96-2.31-0.51 1.23 0.53-1.22-0.02-0.01-0.51 1.23 0.53-1.22s-0.06-0.03-0.17-0.09c-0.39-0.19-1.36-0.76-2.13-1.6-0.38-0.42-0.71-0.9-0.95-1.44-0.24-0.55-0.38-1.14-0.38-1.89 0-1.14 0.35-2.67 1.63-4.75l-2.12-1.31 1.78 1.75c0.98-1 1.81-2.13 2.45-3.38l-2.23-1.14 1.91 1.61 0.03-0.03c0.49-0.59 0.69-1.37 0.53-2.12-0.15-0.75-0.64-1.38-1.32-1.73h-0.01l-1.12 2.24 2.23 1.13c0.88-1.74 1.4-3.7 1.39-5.77 0.01-3.89-1.77-7.39-4.52-9.84-2.75-2.46-6.49-3.94-10.58-3.94s-7.83 1.48-10.58 3.94c-2.75 2.45-4.53 5.95-4.53 9.84 0 2.07 0.52 4.03 1.39 5.76l2.24-1.12-1.39-2.08h-0.01c-0.58 0.39-0.96 0.99-1.08 1.68-0.11 0.68 0.07 1.38 0.49 1.93l0.02 0.03 1.98-1.53-2.23 1.14c0.65 1.25 1.48 2.38 2.45 3.38l1.79-1.75-2.13 1.31c1.28 2.08 1.64 3.61 1.64 4.75 0 0.88-0.21 1.56-0.52 2.17-0.48 0.92-1.26 1.67-1.96 2.17-0.35 0.24-0.66 0.43-0.88 0.54-0.1 0.05-0.19 0.1-0.23 0.12l-0.05 0.02 0.64 1.48-0.62-1.49-0.02 0.01 0.64 1.48-0.62-1.49 0.96 2.31v-2.5h-32.605c-0.66 0-1.301 0.27-1.77 0.73-0.465 0.47-0.73 1.11-0.73 1.77v90.42c0 0.66 0.265 1.31 0.73 1.77 0.469 0.47 1.11 0.73 1.77 0.73h90.425c0.66 0 1.3-0.26 1.77-0.73 0.46-0.46 0.73-1.11 0.73-1.77v-33.22h-2.5l2.18 1.21c0.29-0.51 0.88-1.4 1.69-2.08 0.41-0.34 0.87-0.63 1.37-0.84 0.51-0.2 1.08-0.33 1.76-0.33 1.14 0 2.68 0.36 4.75 1.64l1.32-2.13-1.76 1.78c1 0.98 2.14 1.82 3.39 2.45l1.14-2.23-1.65 1.89 0.03 0.02c0.57 0.5 1.32 0.71 2.06 0.59 0.74-0.13 1.38-0.58 1.76-1.23v-0.01l-2.17-1.24-1.13 2.24c1.73 0.87 3.7 1.39 5.77 1.39 3.89 0 7.39-1.78 9.84-4.53 2.46-2.75 3.94-6.49 3.94-10.58s-1.48-7.83-3.94-10.58c-2.45-2.75-5.96-4.53-9.84-4.52v5c2.34 0 4.48 1.04 6.11 2.85 1.62 1.81 2.67 4.37 2.67 7.25 0 2.87-1.05 5.44-2.67 7.25-1.63 1.81-3.77 2.86-6.11 2.86-1.24 0-2.42-0.3-3.51-0.86-1.19-0.6-2.64-0.16-3.3 0.99v0.01l2.17 1.24 1.64-1.88-0.03-0.03c-0.16-0.14-0.32-0.25-0.51-0.34-0.78-0.4-1.5-0.92-2.15-1.56-0.13-0.13-0.28-0.25-0.44-0.35-2.66-1.64-5.13-2.39-7.38-2.38-1.34-0.01-2.57 0.26-3.63 0.7-1.6 0.65-2.82 1.64-3.71 2.59-0.9 0.96-1.49 1.89-1.85 2.54-0.2 0.37-0.31 0.78-0.31 1.21v30.72h-85.43v-85.42h30.11c0.33 0 0.65-0.07 0.96-0.19 0.16-0.07 1.68-0.7 3.31-2.19 0.81-0.74 1.65-1.71 2.3-2.96 0.65-1.24 1.09-2.77 1.09-4.48 0-2.24-0.74-4.72-2.39-7.38-0.09-0.15-0.21-0.3-0.34-0.44-0.64-0.65-1.16-1.37-1.56-2.15-0.07-0.13-0.16-0.27-0.25-0.39l-0.03-0.03-1.97 1.53 1.38 2.08h0.01c1.06-0.71 1.42-2.08 0.85-3.21-0.56-1.1-0.86-2.27-0.86-3.51 0-2.35 1.05-4.48 2.86-6.12 1.81-1.62 4.37-2.66 7.25-2.66 2.87 0 5.43 1.04 7.24 2.66 1.81 1.64 2.86 3.77 2.86 6.12 0 1.24-0.3 2.41-0.85 3.51-0.3 0.59-0.36 1.28-0.14 1.91 0.2 0.64 0.65 1.15 1.25 1.45l0.01 0.01 1.11-2.24-1.91-1.6-0.02 0.02c-0.12 0.14-0.23 0.31-0.32 0.47-0.39 0.78-0.92 1.51-1.55 2.15-0.13 0.13-0.25 0.29-0.35 0.44-1.65 2.66-2.39 5.14-2.39 7.38 0 1.71 0.44 3.24 1.09 4.48 0.98 1.87 2.37 3.11 3.49 3.92 1.12 0.8 2 1.17 2.12 1.23 0.31 0.12 0.63 0.19 0.96 0.19h30.11v30.72c0 0.43 0.11 0.84 0.31 1.21 0.48 0.86 1.37 2.24 2.85 3.49 0.74 0.63 1.64 1.21 2.71 1.65 1.06 0.43 2.29 0.7 3.63 0.7 2.25 0 4.73-0.75 7.38-2.39 0.16-0.1 0.31-0.22 0.44-0.35 0.65-0.64 1.38-1.16 2.15-1.56 0.16-0.08 0.3-0.17 0.44-0.28l0.03-0.03-1.57-1.94-2.17 1.24v0.01c0.66 1.15 2.11 1.59 3.3 0.99 1.09-0.55 2.27-0.85 3.51-0.85v-2.5"/></g>
  <g id="change1_2"><path fill="#ffffff" d="m215.38 123.62l8.52 32.11c-0.54 2.15-2.93 8.54-11.97 5.8-1.01-0.57-2.08-0.99-3.2-1.23l-0.03-0.01c-1.56-0.33-3.18-0.32-4.77 0.11-6.03 1.6-9.45 8.35-7.67 15.08 1.79 6.73 8.12 10.88 14.14 9.29 1.6-0.43 3.01-1.22 4.19-2.28h0.01l0.02-0.03c0.85-0.76 1.57-1.65 2.16-2.64 6.49-6.87 11.74-2.52 13.28-0.92l8.53 32.12 31.52-8.38s9.75 1.32 6.47 12.13c-0.57 1-0.99 2.08-1.22 3.19l-0.02 0.03c-0.32 1.56-0.32 3.17 0.11 4.78 1.6 6.02 8.35 9.45 15.08 7.66s10.88-8.12 9.29-14.13c-0.43-1.61-1.23-3.01-2.28-4.2l-0.03-0.03c-0.76-0.84-1.65-1.57-2.65-2.16-8.2-7.75-0.39-13.74-0.39-13.74l31.51-8.37-23.21-87.39-87.39 23.21"/></g>
  <g id="change2_2"><path fill="#040505" d="m215.38 123.62l-2.42 0.64 8.53 32.12 2.41-0.65-2.42-0.61c-0.16 0.67-0.61 1.94-1.44 2.88-0.41 0.48-0.9 0.89-1.52 1.19-0.63 0.3-1.41 0.51-2.5 0.51-0.91 0-2.02-0.15-3.37-0.56l-0.72 2.39 1.23-2.17c-1.21-0.69-2.52-1.21-3.9-1.5l-0.53 2.44 0.98-2.3-0.03-0.02c-0.77-0.32-1.66-0.24-2.36 0.22s-1.12 1.25-1.12 2.09h2.5l0.51-2.44c-0.88-0.19-1.78-0.29-2.7-0.29-1.07 0-2.15 0.14-3.23 0.42-3.07 0.82-5.61 2.73-7.33 5.2-1.72 2.48-2.66 5.52-2.66 8.71 0 1.39 0.17 2.81 0.55 4.23 0.9 3.38 2.78 6.24 5.23 8.26s5.5 3.23 8.71 3.23c1.08 0 2.18-0.14 3.26-0.43 2-0.53 3.76-1.53 5.22-2.82l-1.67-1.87-1.77 1.77h0.01c0.51 0.51 1.22 0.78 1.94 0.73 0.73-0.05 1.39-0.42 1.83-1l0.02-0.03-2-1.5 1.67 1.86c1.05-0.93 1.93-2.03 2.64-3.23l-2.15-1.27 1.82 1.71c1.17-1.23 2.21-1.97 3.1-2.4s1.62-0.56 2.29-0.57c0.95 0 1.81 0.3 2.56 0.74 0.76 0.43 1.37 0.99 1.71 1.33l1.8-1.73-2.42 0.64 8.54 32.12c0.35 1.33 1.72 2.13 3.05 1.77l31.52-8.37-0.64-2.42-0.34 2.48c0.18 0.02 1.64 0.33 2.82 1.17 0.59 0.41 1.11 0.92 1.5 1.6 0.38 0.68 0.66 1.52 0.66 2.79 0 0.89-0.15 2.01-0.56 3.37l2.39 0.72-2.17-1.24c-0.7 1.22-1.21 2.53-1.5 3.9l2.45 0.53-2.31-0.98-0.01 0.04c-0.31 0.71-0.26 1.51 0.11 2.18s1.02 1.13 1.78 1.26l0.41-2.47-2.44-0.51c-0.19 0.88-0.29 1.79-0.29 2.7 0 1.07 0.14 2.16 0.42 3.23 0.82 3.08 2.73 5.61 5.2 7.33 2.48 1.72 5.52 2.67 8.71 2.67 1.39 0 2.81-0.18 4.23-0.56 3.38-0.9 6.24-2.78 8.26-5.23s3.23-5.5 3.23-8.71c0-1.08-0.14-2.18-0.43-3.25-0.53-2.01-1.53-3.77-2.82-5.22l-1.87 1.66 1.77 1.77v-0.01c0.5-0.5 0.76-1.19 0.73-1.89-0.04-0.71-0.37-1.37-0.92-1.81l-0.03-0.03-1.58 1.94 1.86-1.67c-0.94-1.04-2.03-1.93-3.23-2.64l-1.28 2.15 1.72-1.81c-1.23-1.17-1.97-2.21-2.4-3.1s-0.56-1.63-0.57-2.3c0-0.63 0.14-1.22 0.35-1.77 0.33-0.82 0.86-1.57 1.31-2.07 0.23-0.25 0.43-0.45 0.57-0.57l0.14-0.13 0.03-0.02-0.62-0.77 0.6 0.79 0.02-0.02-0.62-0.77 0.6 0.79-1.52-1.99 0.64 2.42 31.52-8.37c0.64-0.17 1.19-0.6 1.52-1.17s0.42-1.25 0.25-1.89l-23.21-87.394c-0.17-0.637-0.6-1.192-1.16-1.524-0.57-0.328-1.26-0.422-1.9-0.254l-87.4 23.212c-1.33 0.36-2.12 1.73-1.77 3.06l2.42-0.64 0.64 2.42 84.98-22.58 21.93 82.57-29.1 7.73c-0.32 0.08-0.62 0.22-0.88 0.43-0.12 0.1-1.12 0.86-2.17 2.28-0.52 0.71-1.05 1.58-1.47 2.62-0.41 1.05-0.7 2.27-0.7 3.61 0 1.41 0.33 2.95 1.07 4.48 0.74 1.52 1.87 3.05 3.46 4.55 0.14 0.12 0.29 0.24 0.45 0.33 0.79 0.47 1.48 1.03 2.06 1.68 0.1 0.11 0.17 0.18 0.28 0.27l0.03 0.03 1.58-1.94-1.77-1.77c-0.94 0.94-0.98 2.44-0.1 3.43 0.82 0.92 1.41 1.97 1.73 3.17 0.17 0.67 0.26 1.33 0.26 1.98 0 1.94-0.73 3.88-2.09 5.53-1.35 1.63-3.31 2.95-5.68 3.58-1 0.26-1.99 0.39-2.95 0.39-2.21 0-4.26-0.66-5.85-1.77-1.59-1.12-2.73-2.65-3.23-4.52-0.17-0.64-0.25-1.28-0.25-1.94 0-0.56 0.06-1.11 0.18-1.67 0.14-0.67 0.01-1.36-0.38-1.92-0.39-0.57-0.98-0.95-1.66-1.06l-0.41 2.46 2.3 0.97 0.02-0.03c0.05-0.14 0.11-0.31 0.14-0.45 0.18-0.85 0.5-1.68 0.95-2.47 0.09-0.16 0.17-0.35 0.23-0.52 0.52-1.75 0.77-3.35 0.77-4.81 0.01-2.19-0.57-4.08-1.49-5.56-0.68-1.1-1.53-1.96-2.39-2.62-1.29-1-2.6-1.55-3.61-1.89-1-0.32-1.71-0.43-1.82-0.44-0.33-0.05-0.66-0.03-0.98 0.06l-29.09 7.73-7.89-29.7c-0.11-0.41-0.33-0.78-0.62-1.09-0.57-0.59-1.5-1.46-2.82-2.21-1.3-0.75-3.02-1.4-5.05-1.4-1.41 0-2.94 0.33-4.47 1.07s-3.05 1.88-4.56 3.47c-0.12 0.13-0.23 0.28-0.32 0.44-0.48 0.79-1.04 1.48-1.69 2.06-0.11 0.1-0.24 0.24-0.33 0.36l-0.02 0.03 2 1.5 1.76-1.76v-0.01c-0.94-0.94-2.44-0.98-3.43-0.1-0.92 0.82-1.97 1.41-3.18 1.73h0.01c-0.67 0.17-1.33 0.26-1.98 0.26-1.94 0-3.88-0.73-5.52-2.09-1.64-1.35-2.95-3.31-3.58-5.68-0.27-1-0.39-1.99-0.39-2.95 0-2.21 0.65-4.26 1.76-5.85 1.12-1.59 2.65-2.73 4.52-3.23 0.64-0.17 1.29-0.25 1.94-0.25 0.55 0 1.11 0.06 1.67 0.18 0.73 0.15 1.51-0.03 2.09-0.51 0.59-0.46 0.93-1.19 0.93-1.94h-2.5l-0.98 2.3 0.04 0.02c0.13 0.05 0.31 0.1 0.45 0.14 0.85 0.18 1.68 0.5 2.48 0.95 0.15 0.09 0.33 0.17 0.51 0.23 1.75 0.52 3.35 0.77 4.82 0.77 1.77 0 3.34-0.37 4.66-1 1.99-0.96 3.32-2.45 4.17-3.82 0.85-1.39 1.27-2.7 1.48-3.54 0.1-0.41 0.1-0.84-0.01-1.25l-8.53-32.11-2.41 0.64 0.64 2.42-0.64-2.42"/></g>
  <g id="change1_3"><path fill="#ffffff" d="m246.35 234.51s-9.07 3.77-3.14 13.36c0.81 0.82 1.48 1.75 2 2.76l0.02 0.03c0.71 1.41 1.12 2.98 1.12 4.64 0 6.22-5.64 11.26-12.59 11.26s-12.58-5.04-12.58-11.26c0-1.66 0.41-3.23 1.12-4.64h-0.01l0.03-0.03c0.51-1.01 1.19-1.94 2-2.76 5.92-9.59-3.14-13.36-3.14-13.36h-32.56v32.55s3.77 9.07 13.36 3.14c0.82-0.81 1.75-1.48 2.76-2l0.03-0.02v0.01c1.42-0.72 2.98-1.13 4.64-1.13 6.22 0 11.26 5.64 11.26 12.59s-5.04 12.59-11.26 12.59c-1.66 0-3.22-0.41-4.64-1.13v0.01l-0.03-0.02c-1.01-0.52-1.94-1.19-2.76-2-9.59-5.93-13.36 3.14-13.36 3.14v32.55h90.28v-90.28h-32.55"/></g>
  <g id="change2_3"><path fill="#040505" d="m246.35 234.51l-0.96-2.31c-0.16 0.07-1.68 0.7-3.31 2.18-0.81 0.74-1.65 1.71-2.29 2.96-0.66 1.24-1.1 2.76-1.09 4.47 0 2.24 0.73 4.72 2.38 7.37 0.1 0.16 0.22 0.31 0.34 0.44 0.64 0.65 1.17 1.37 1.56 2.14 0.08 0.17 0.17 0.31 0.29 0.45l0.02 0.03 1.94-1.58-0.79-2.37c-0.69 0.23-1.25 0.75-1.53 1.42-0.27 0.67-0.24 1.43 0.09 2.08 0.55 1.1 0.85 2.26 0.85 3.51 0 2.34-1.05 4.47-2.85 6.09-1.81 1.63-4.37 2.67-7.24 2.67s-5.42-1.04-7.23-2.67c-1.81-1.62-2.85-3.75-2.85-6.09 0-1.24 0.3-2.41 0.85-3.51 0.34-0.68 0.36-1.48 0.04-2.17-0.31-0.69-0.93-1.2-1.66-1.38l-0.01-0.01-0.61 2.43 1.94 1.58 0.03-0.03c0.11-0.14 0.2-0.28 0.28-0.44 0.4-0.78 0.92-1.5 1.56-2.15 0.13-0.13 0.25-0.28 0.34-0.44 1.65-2.65 2.39-5.13 2.38-7.37 0.01-1.71-0.43-3.23-1.08-4.47-0.98-1.87-2.36-3.11-3.48-3.91-1.12-0.81-2-1.18-2.13-1.23-0.31-0.13-0.62-0.19-0.95-0.19h-32.56c-0.66 0-1.3 0.26-1.77 0.73-0.46 0.46-0.73 1.11-0.73 1.77v32.55c0 0.33 0.06 0.65 0.19 0.96 0.07 0.17 0.7 1.68 2.18 3.31 0.74 0.81 1.71 1.65 2.96 2.3 1.24 0.65 2.76 1.09 4.47 1.08 2.24 0.01 4.72-0.73 7.37-2.38 0.16-0.09 0.31-0.21 0.44-0.34 0.65-0.64 1.37-1.16 2.15-1.56 0.16-0.08 0.3-0.17 0.44-0.29l0.03-0.02-1.58-1.94-2.37 0.79v0.01c0.23 0.68 0.75 1.24 1.42 1.52 0.67 0.27 1.43 0.24 2.08-0.08 1.1-0.56 2.27-0.85 3.51-0.86 2.34 0.01 4.47 1.05 6.1 2.86 1.61 1.81 2.66 4.36 2.66 7.23s-1.05 5.43-2.66 7.24c-1.63 1.81-3.76 2.84-6.1 2.85-1.24 0-2.41-0.3-3.51-0.86-0.67-0.33-1.45-0.35-2.13-0.06-0.68 0.3-1.2 0.89-1.4 1.61l2.4 0.69 1.58-1.94-0.03-0.02c-0.14-0.12-0.28-0.21-0.44-0.29-0.77-0.39-1.5-0.92-2.15-1.56-0.13-0.12-0.28-0.25-0.44-0.34-2.65-1.65-5.13-2.38-7.37-2.38-1.71-0.01-3.23 0.43-4.47 1.09-1.87 0.97-3.11 2.36-3.91 3.47-0.81 1.12-1.18 2.01-1.23 2.13-0.13 0.31-0.19 0.63-0.19 0.96v32.55c0 0.66 0.27 1.31 0.73 1.77 0.47 0.47 1.11 0.73 1.77 0.73h90.28c0.66 0 1.31-0.26 1.77-0.73 0.47-0.46 0.73-1.11 0.73-1.77v-90.28c0-0.66-0.26-1.3-0.73-1.77-0.46-0.47-1.11-0.73-1.77-0.73h-32.55c-0.33 0-0.65 0.06-0.96 0.19l0.96 2.31v2.5h30.05v85.28h-85.28v-30.05h-2.5l2.31 0.96-1.24-0.52 1.23 0.53 0.01-0.01-1.24-0.52 1.23 0.53s0.03-0.05 0.08-0.16c0.2-0.4 0.76-1.36 1.61-2.12 0.41-0.39 0.9-0.72 1.44-0.96s1.13-0.38 1.87-0.38c1.13 0 2.67 0.36 4.74 1.63l1.32-2.12-1.76 1.78c1 0.98 2.14 1.81 3.39 2.44l1.13-2.22-1.58 1.94 0.04 0.02c0.64 0.53 1.53 0.7 2.32 0.45 0.8-0.25 1.43-0.9 1.66-1.7v-0.01l-2.41-0.69-1.12 2.24c1.73 0.87 3.69 1.39 5.76 1.39 3.88 0 7.38-1.78 9.82-4.52 2.46-2.75 3.94-6.49 3.94-10.57s-1.48-7.82-3.94-10.56c-2.44-2.75-5.94-4.53-9.82-4.53-2.07 0-4.03 0.52-5.77 1.39l1.13 2.24 2.37-0.8c-0.26-0.78-0.88-1.38-1.67-1.61s-1.64-0.06-2.27 0.46l-0.04 0.03 1.58 1.93-1.14-2.22c-1.24 0.63-2.38 1.46-3.37 2.44l1.75 1.78-1.32-2.12c-2.07 1.28-3.61 1.63-4.74 1.63-0.87 0-1.55-0.2-2.16-0.52-0.91-0.47-1.66-1.26-2.16-1.95-0.24-0.35-0.43-0.66-0.54-0.87-0.06-0.11-0.1-0.19-0.12-0.24l-0.02-0.04-1.48 0.63 1.49-0.62-0.01-0.01-1.48 0.63 1.49-0.62-2.31 0.96h2.5v-30.05h30.06v-2.5l-0.97 2.31 0.5-1.2-0.51 1.19 0.01 0.01 0.5-1.2-0.51 1.19s0.06 0.03 0.17 0.08c0.39 0.2 1.36 0.76 2.11 1.6 0.39 0.42 0.72 0.9 0.96 1.44 0.24 0.55 0.38 1.14 0.38 1.88 0 1.14-0.36 2.67-1.63 4.74l2.13 1.32-1.79-1.75c-0.98 0.99-1.8 2.13-2.44 3.37l2.23 1.14-1.94-1.58-0.03 0.04c-0.54 0.66-0.7 1.55-0.43 2.36s0.94 1.43 1.76 1.64h0.01l0.61-2.43-2.23-1.12c-0.88 1.73-1.4 3.69-1.39 5.76-0.01 3.88 1.77 7.38 4.52 9.82 2.74 2.46 6.48 3.93 10.56 3.94 4.08-0.01 7.82-1.48 10.57-3.94 2.74-2.44 4.52-5.94 4.52-9.82 0-2.07-0.51-4.03-1.39-5.76l-2.23 1.12 0.79 2.38v-0.01c0.78-0.26 1.38-0.89 1.61-1.67 0.23-0.79 0.06-1.64-0.46-2.27l-0.02-0.04-1.94 1.58 2.23-1.13c-0.64-1.25-1.47-2.39-2.45-3.38l-1.78 1.75 2.12-1.32c-1.28-2.07-1.63-3.6-1.63-4.74 0-0.87 0.2-1.55 0.52-2.16 0.47-0.91 1.26-1.67 1.96-2.16 0.34-0.25 0.66-0.43 0.87-0.54 0.1-0.06 0.18-0.1 0.23-0.12l0.04-0.02-0.62-1.46 0.61 1.47 0.01-0.01-0.62-1.46 0.61 1.47-0.96-2.31v2.5-2.5"/></g>
  <g id="change1_4"><path fill="#ffffff" d="m131.84 234.37s9.07-3.77 3.14-13.36c-0.8-0.83-1.48-1.75-2-2.76l-0.02-0.04c-0.71-1.41-1.12-2.98-1.12-4.63 0-6.22 5.64-11.26 12.59-11.26s12.59 5.04 12.59 11.26c0 1.65-0.41 3.22-1.13 4.63l-0.02 0.04c-0.51 1.01-1.19 1.93-2 2.76-5.93 9.59 3.15 13.36 3.15 13.36h32.55v-32.56s-3.77-9.07-13.36-3.14c-0.82 0.81-1.75 1.48-2.76 2l-0.03 0.03-0.01-0.01c-1.41 0.71-2.97 1.12-4.63 1.12-6.22 0-11.26-5.63-11.26-12.58 0-6.96 5.04-12.59 11.26-12.59 1.66 0 3.22 0.41 4.63 1.12l0.01-0.01 0.03 0.03c1.01 0.51 1.94 1.19 2.76 2 9.59 5.93 13.36-3.14 13.36-3.14v-32.56h-90.289v90.29h32.559"/></g>
  <g id="change2_4"><path fill="#040505" d="m131.84 234.37l0.96 2.31c0.16-0.07 1.68-0.7 3.31-2.18 0.8-0.75 1.64-1.72 2.29-2.96s1.1-2.77 1.09-4.47c0-2.25-0.74-4.72-2.38-7.37-0.09-0.16-0.22-0.31-0.34-0.44-0.65-0.65-1.17-1.38-1.56-2.15-0.07-0.13-0.13-0.23-0.22-0.35l-0.03-0.04-2 1.49 0.41 2.47h0.01c0.78-0.13 1.46-0.63 1.81-1.34 0.36-0.71 0.36-1.55 0.01-2.25-0.56-1.1-0.86-2.27-0.86-3.51 0-2.34 1.04-4.47 2.86-6.1 1.8-1.62 4.36-2.66 7.23-2.66s5.43 1.04 7.23 2.66c1.81 1.63 2.85 3.76 2.86 6.1 0 1.24-0.31 2.41-0.86 3.51-0.36 0.7-0.36 1.54 0 2.25s1.04 1.21 1.82 1.34l0.41-2.47-2.05-1.41-0.03 0.04c-0.06 0.08-0.11 0.18-0.16 0.27-0.4 0.77-0.92 1.5-1.56 2.15-0.13 0.13-0.25 0.28-0.34 0.44-1.65 2.65-2.39 5.12-2.39 7.36 0 1.71 0.44 3.24 1.09 4.48 0.98 1.87 2.36 3.11 3.48 3.91s2 1.17 2.12 1.23c0.31 0.12 0.63 0.19 0.97 0.19h32.55c0.66 0 1.3-0.27 1.77-0.73 0.46-0.47 0.73-1.11 0.73-1.77v-32.56c0-0.33-0.06-0.65-0.19-0.96-0.08-0.16-0.7-1.68-2.18-3.3-0.75-0.81-1.72-1.65-2.96-2.3s-2.77-1.09-4.47-1.09c-2.25 0-4.72 0.74-7.38 2.38-0.15 0.1-0.31 0.22-0.44 0.35-0.64 0.64-1.36 1.16-2.14 1.56-0.13 0.06-0.28 0.16-0.4 0.25l-0.03 0.03 1.54 1.97 2.37-0.79v-0.01c-0.23-0.69-0.75-1.25-1.42-1.52-0.67-0.28-1.44-0.25-2.08 0.08-1.1 0.55-2.27 0.85-3.51 0.85-2.34 0-4.47-1.04-6.1-2.85-1.62-1.81-2.66-4.37-2.66-7.23 0-2.87 1.04-5.43 2.66-7.24 1.63-1.81 3.76-2.85 6.1-2.85 1.24 0 2.41 0.3 3.51 0.85 0.66 0.33 1.45 0.36 2.13 0.06s1.2-0.89 1.4-1.6v-0.01l-2.4-0.69-1.65 1.88 0.03 0.03c0.16 0.14 0.33 0.25 0.52 0.35 0.77 0.39 1.49 0.92 2.14 1.55 0.13 0.13 0.28 0.25 0.43 0.35 2.66 1.64 5.13 2.38 7.38 2.38 1.7 0 3.23-0.44 4.47-1.09 1.87-0.98 3.11-2.36 3.91-3.48s1.17-2 1.23-2.12c0.12-0.31 0.19-0.63 0.19-0.96v-32.56c0-0.65-0.27-1.3-0.73-1.77-0.47-0.46-1.11-0.73-1.77-0.73h-90.289c-0.656 0-1.301 0.27-1.765 0.73-0.465 0.47-0.735 1.12-0.735 1.77v90.29c0 0.66 0.27 1.3 0.735 1.77 0.464 0.46 1.109 0.73 1.765 0.73h32.559c0.33 0 0.65-0.07 0.96-0.19l-0.96-2.31v-2.5h-30.06v-85.29h85.29v30.06h2.5l-2.31-0.96 1.22 0.5-1.21-0.52-0.01 0.02 1.22 0.5-1.21-0.52s-0.03 0.06-0.08 0.17c-0.2 0.39-0.76 1.36-1.61 2.12-0.42 0.39-0.9 0.72-1.44 0.96-0.54 0.23-1.14 0.38-1.87 0.38-1.14 0-2.68-0.36-4.75-1.64l-1.31 2.13 1.75-1.78c-0.99-0.98-2.13-1.81-3.38-2.45l-1.13 2.23 1.64-1.88-0.03-0.03c-0.64-0.56-1.53-0.76-2.35-0.51-0.82 0.24-1.46 0.89-1.69 1.71h-0.01l2.4 0.69 1.13-2.23c-1.73-0.88-3.69-1.39-5.76-1.39-3.88 0-7.38 1.77-9.82 4.52-2.46 2.75-3.94 6.48-3.94 10.57 0 4.08 1.48 7.81 3.94 10.56 2.44 2.75 5.94 4.53 9.82 4.52 2.07 0 4.03-0.51 5.76-1.39l-1.13-2.23-2.37 0.79h0.01c0.25 0.77 0.87 1.38 1.65 1.61 0.77 0.23 1.62 0.07 2.26-0.43l0.03-0.02-1.54-1.97 1.14 2.23c1.24-0.64 2.37-1.47 3.37-2.45l-1.75-1.78 1.31 2.13c2.07-1.28 3.61-1.64 4.75-1.64 0.87 0 1.54 0.21 2.16 0.52 0.91 0.47 1.66 1.26 2.16 1.96 0.25 0.34 0.43 0.66 0.54 0.87 0.06 0.11 0.1 0.19 0.12 0.24l0.02 0.04 1.47-0.63-1.48 0.61 0.01 0.02 1.47-0.63-1.48 0.61 2.31-0.96h-2.5v30.06h-30.05v2.5l0.96-2.31-0.51 1.22 0.52-1.21-0.01-0.01-0.51 1.22 0.52-1.21s-0.06-0.03-0.17-0.09c-0.39-0.19-1.36-0.75-2.12-1.6-0.38-0.42-0.72-0.9-0.95-1.44-0.24-0.54-0.39-1.14-0.39-1.88 0-1.13 0.36-2.67 1.64-4.74l-2.13-1.31 1.78 1.75c0.98-1 1.81-2.13 2.45-3.37l-2.23-1.14 2.06 1.41 0.03-0.03c0.48-0.7 0.57-1.61 0.24-2.4-0.34-0.78-1.05-1.34-1.89-1.48h-0.01l-0.41 2.46 2.23 1.13c0.88-1.73 1.4-3.69 1.4-5.76 0-3.88-1.78-7.38-4.52-9.83-2.75-2.45-6.49-3.93-10.57-3.93-4.09 0-7.82 1.48-10.57 3.93s-4.52 5.95-4.52 9.83c0 2.07 0.52 4.03 1.39 5.76l2.23-1.13-0.41-2.46c-0.86 0.14-1.59 0.72-1.91 1.53-0.33 0.81-0.21 1.73 0.31 2.42l0.03 0.04 2-1.49-2.23 1.13c0.64 1.25 1.47 2.38 2.45 3.38l1.78-1.75-2.12 1.31c1.27 2.07 1.63 3.61 1.63 4.75 0 0.87-0.2 1.54-0.52 2.16-0.47 0.91-1.26 1.66-1.95 2.16-0.35 0.24-0.66 0.43-0.88 0.54-0.1 0.05-0.19 0.1-0.23 0.12l-0.05 0.02 0.64 1.48-0.62-1.49-0.02 0.01 0.64 1.48-0.62-1.49 0.96 2.31v-2.5 2.5"/></g>
 </g>
</svg>