<?xml version="1.0" encoding="UTF-8" standalone="no"?><svg xmlns="http://www.w3.org/2000/svg" xmlns:xlink="http://www.w3.org/1999/xlink" contentScriptType="text/ecmascript" fill="#000000" width="529.4" zoomAndPan="magnify" contentStyleType="text/css" viewBox="-4.9 -7.2 529.4 627.5" height="627.5" preserveAspectRatio="xMidYMid meet" version="1"><g data-name="Layer 2"><g id="change1_1" data-name="Layer 1"><path fill="inherit" d="M293.92,532.62a366.36,366.36,0,0,1-59.5-5.33c-27-4.46-43.48-12.55-51.87-25.48-7.63-11.75-7.63-25.91-7.62-40.89,0-25.56,0-54.53-38-81.22C114.55,364,99.3,337.34,92.88,302.76c-5.63-30.37-4.13-65.33,4.23-98.45,14-55.33,42.88-92.09,75.46-95.95,80-9.48,145.81,28.57,171.7,99.27,9.49,25.91,30.48,44.38,52.71,63.93,36.93,32.49,75.11,66.09,58.41,136.09-12.6,52.85-39.28,89.34-79.27,108.47C353.09,527.14,325.91,532.62,293.92,532.62ZM196.31,113.94a195.14,195.14,0,0,0-22.91,1.37c-14.83,1.76-29.26,11.57-41.74,28.39-11.93,16.09-21.54,37.64-27.77,62.32-8.11,32.16-9.58,66.07-4.13,95.46C105.84,334.23,120.1,359.29,141,374c41,28.78,40.95,61,40.93,86.95,0,29.38,0,50.6,53.63,59.46a355.56,355.56,0,0,0,57.83,5.16c85.12,0,136.09-39.43,155.19-119.51,7.15-30,4.44-54.51-8.53-77.22-11.5-20.15-29.9-36.34-47.69-52C370.45,257.55,347.8,237.61,337.7,210,315.49,149.4,262.42,113.94,196.31,113.94Z"/><path fill="inherit" d="M263.32,497.73c-8.43,0-16-.88-22.08-2.86-9-2.91-14.59-8-16.62-15.07-2.56-9-4.09-20.62-5.72-33-4.8-36.41-10.77-81.72-46.84-91.63-19.68-5.4-35.92-21.8-45.74-46.19-14-34.83-12.11-78.82,4.66-107,19.6-32.91,39.19-51,58.21-53.75,11.07-1.6,21.55,2.09,31.17,11,7.63,7,16.9,20,28.65,36.5,28.11,39.41,70.59,99,126.25,120.81,20.53,8.06,46,24.39,50.74,56.44,4.92,33.35-14.79,69-35.85,85.57C367.53,476.41,304.68,497.73,263.32,497.73ZM173.91,348.46c40.56,11.13,46.86,59,51.93,97.47,1.59,12.08,3.1,23.49,5.51,31.95,1.37,4.77,5.3,8.15,12,10.33,33.73,10.9,116.89-15,142.43-35.12,19.78-15.59,37.63-49.41,33.25-79-3.41-23.08-19-40.22-46.36-50.95-57.6-22.6-100.81-83.18-129.4-123.26-11.05-15.5-20.6-28.88-27.7-35.43-8-7.38-16.54-10.47-25.42-9.18-16.59,2.41-35,19.83-53.2,50.4-15.72,26.4-17.44,67.84-4.18,100.78C141.79,328.72,156.39,343.65,173.91,348.46Z"/><path fill="inherit" d="M291.55,564.39c-34.78,0-69.46-4.09-92.59-11.21-54.45-16.75-84.51-55.56-82.47-106.48,1.69-42.27-7.22-50.67-33.66-75.63-3.67-3.47-7.84-7.4-12.28-11.72-29-28.19-42.22-68.27-38.24-115.92,2.6-31.22,12.91-64.94,29-94.93C77,119.38,97.12,95.39,118,81c29.12-20.13,61.87-25.22,100.11-15.57,31.88,8,60.62,24.59,83.71,37.88,2.73,1.57,5.37,3.09,7.9,4.52,18.67,10.61,29.47,32.35,42,57.53,18.1,36.43,40.64,81.77,97,113.47,28.68,16.13,44.91,41.75,48.24,76.15,2.88,29.87-4.6,66.37-21.06,102.78-13.92,30.78-33.32,59-50.63,73.78-21.41,18.23-61.08,29.71-111.71,32.33C306.28,564.21,298.91,564.39,291.55,564.39ZM182.47,67.69a103.64,103.64,0,0,0-60.49,19c-20,13.81-39.33,36.93-54.47,65.1C51.83,181,41.81,213.72,39.28,244c-2.65,31.72,1.48,76.6,36.15,110.31,4.4,4.28,8.55,8.19,12.2,11.65,26.64,25.14,37.67,35.55,35.85,81-1.9,47.5,26.36,83.77,77.54,99.51,27.31,8.41,71.34,12.47,112.16,10.35,49.1-2.55,87.29-13.44,107.54-30.67C453,498.68,496.05,418.57,490,355.61c-3.09-32-18.13-55.78-44.7-70.72C387,252.13,364,205.72,345.44,168.43c-12-24.14-22.37-45-39.18-54.55q-3.81-2.16-7.93-4.54c-22.72-13.08-51-29.35-81.93-37.16A138.73,138.73,0,0,0,182.47,67.69Z"/><path fill="inherit" d="M276.24,456.18a34.55,34.55,0,0,1-16.38-3.62c-8-4.24-13.49-12.28-16.28-23.91-3.2-13.34-5.3-26.19-7.33-38.62-5.33-32.68-9.55-58.49-30.14-63.8-27.65-7.14-44.63-29.77-48.7-47.78-2.53-11.19-.31-20.68,6.09-26,5.24-4.39,15.54-7.92,34.84.21,23.74,10,39.5,22.89,54.73,35.36,21.93,17.94,42.64,34.89,85.52,42.42,18.54,3.26,33.13,10.1,43.34,20.35,9,9.07,14.07,20.3,14.53,32.49a47.81,47.81,0,0,1-35.61,48c-10,2.56-21.2,6.8-32,10.9C310.53,449.07,291.77,456.18,276.24,456.18ZM177.86,254.74c-4.11,0-7.45,1-9.86,3-4.32,3.62-5.7,10.59-3.76,19.13,3.61,16,18.81,36.15,43.62,42.55h0c25,6.45,29.78,35.65,35.3,69.46,2,12.3,4.09,25,7.23,38.11,2.33,9.72,6.5,16.05,12.74,19.35,14.52,7.68,39.28-1.71,63.23-10.79,11-4.16,22.35-8.47,32.76-11.13a40.79,40.79,0,0,0,30.35-40.95c-.9-23.37-20.37-40.64-52.09-46.22-44.69-7.85-67.08-26.17-88.74-43.9-14.85-12.15-30.21-24.71-53-34.32C188.8,256.19,182.78,254.74,177.86,254.74Z"/><path fill="inherit" d="M330.91,619.74c-23.16,0-46.28-3.54-66.19-8-59.05-13.18-114.44-39.09-146.57-58.93-38.68-23.89-46.8-66-54-103.12C58.42,419.82,53,391.6,32.9,376.64-4.91,348.49-1.82,298.25,2.46,228.72c1.26-20.54,2.57-41.78,3-64.95C7.12,80.67,57.66,62.23,134.18,34.32c19.92-7.27,42.51-15.51,66.43-25.7,37.1-15.81,70.59-9.91,102.39,18,27.3,24,49.1,60,70.19,94.89,17.75,29.34,34.51,57,52.12,72.67,34,30.19,58.24,64.11,74.05,103.69,13.51,33.82,20.85,71.24,23.12,117.76,2,40.23-5.62,70.8-24.59,99.12-18.77,28-48.11,52.71-81.71,79.77C392.76,613.43,361.81,619.73,330.91,619.74ZM239.5,7.09c-11.67,0-23.69,2.66-36.14,8-24.1,10.26-46.78,18.54-66.79,25.84C60.15,68.77,14,85.6,12.49,163.91c-.46,23.31-1.77,44.63-3,65.24C5.3,296.49,2.31,345.14,37.08,371c22.26,16.58,28,46.09,34,77.34,7.23,37.47,14.7,76.22,50.77,98.49,31.65,19.55,86.21,45.07,144.42,58.06,45,10,106.74,15.45,145.54-15.81C480.7,533.6,519.5,498.19,515.49,416c-2.23-45.72-9.42-82.42-22.63-115.5-15.39-38.55-39-71.61-72.2-101-18.4-16.34-35.43-44.48-53.46-74.28-20.81-34.41-42.33-70-68.82-93.26C279.52,15.34,260.05,7.09,239.5,7.09Z"/></g></g></svg>