<?xml version="1.0" encoding="UTF-8" standalone="no"?><!-- Generator: Adobe Illustrator 22.1.0, SVG Export Plug-In . SVG Version: 6.00 Build 0)  --><svg xmlns="http://www.w3.org/2000/svg" xmlns:xlink="http://www.w3.org/1999/xlink" contentScriptType="text/ecmascript" zoomAndPan="magnify" contentStyleType="text/css" id="Layer_1" enable-background="new 0 0 500 500" version="1.1" xml:space="preserve" fill="#000000" preserveAspectRatio="xMidYMid meet" viewBox="0 0 500 500" x="0px" y="0px">
<g>
	<g id="change1_1">
		<path fill="#191919" d="m128.42 493h125.92c15.24 0 20.75-19.93 12.69-31.09-0.9 3.42-1.79 6.84-2.69 10.26l0.01-0.01c4.47-2.57 4.57-8.16 1.52-11.78-20.11-23.87-12.97-60.8 14.2-75.77 25.27-13.91 58.07-2.41 69.48 23.99 7.13 16.5 4.54 36.34-6.61 50.44-2.86 3.61-3.13 9.26 1.52 11.78h0.01c-0.9-3.42-1.79-6.84-2.69-10.26-5.98 8.44-7.32 19.41 0.35 27.28 2.7 2.77 5.71 4.79 9.64 4.95 8.12 0.33 16.32 0.02 24.45 0.04 28.71 0.04 57.41 0.09 86.12 0.13 7.62 0.01 15.25 0.02 22.87 0.03 4.05 0.01 7.5-3.44 7.5-7.5v-35.4-85.04-103.44-88.99c0-14.38 0.62-28.93 0-43.3-0.01-0.21 0-0.41 0-0.62 0-4.05-3.44-7.5-7.5-7.5h-117.54-16.67c1.26 0.34 2.52 0.68 3.79 1.02-1.22-0.63-1.61-0.86-2.26-1.78-1.89-2.67-0.1-5.63 2.21-8.9 2.29-3.23 0.64-8.46-2.69-10.26h-0.01c0.51 3.93 1.01 7.85 1.52 11.78 13.28-16.8 18.53-38.61 12.45-59.42-5.03-17.23-17.47-32.29-33.72-40.06-34.53-16.51-76.11 0.45-89.35 36.3-8.18 22.13-2.63 46.74 12.34 64.52 0.51-3.93 1.01-7.85 1.52-11.78l-0.01 0.01c-3.28 1.86-5.05 6.99-2.69 10.26 2.01 2.78 3.21 6.39-0.74 9.34 1.26-0.34 2.52-0.68 3.79-1.02h-112.54-16.17c-4.05 0-7.5 3.44-7.5 7.5v115.7 16.54c0.34-1.26 0.68-2.52 1.02-3.79-0.51 0.74-0.14 0 0.18-0.19-0.37 0.22-0.59 0.76-0.93 1.02-0.59 0.44-0.56 0.91-1.73 1.19-2.6 0.61-5.38-1.4-7.6-2.96-3.24-2.28-8.45-0.64-10.26 2.69v0.01c3.93-0.51 7.85-1.01 11.78-1.52-16.8-13.28-38.61-18.53-59.42-12.45-17.23 5.03-32.29 17.47-40.06 33.72-16.51 34.53 0.45 76.11 36.3 89.35 22.13 8.18 46.74 2.63 64.52-12.34-3.93-0.51-7.85-1.01-11.78-1.52l0.01 0.01c4.78 8.38 17.75 0.84 12.95-7.57l-0.01-0.01c0.34 1.26 0.68 2.52 1.02 3.79v-0.03c-1.24 2.16-2.48 4.32-3.71 6.48 2.23-1.57 4.99-3.58 7.6-2.96 0.67 0.16 1.38 0.87 1.46 0.93 0.35 0.29 0.62 0.78 0.99 1.03 0.81 0.53-0.74-1.07 0.04 0.06-0.34-1.26-0.68-2.52-1.02-3.79-0.39 39.01-0.78 78.02-1.17 117.03-0.05 5.46-0.11 10.92-0.16 16.38-0.1 9.65 14.9 9.66 15 0 0.44-43.83 1.7-87.73 1.31-131.55-0.05-5.27-2.99-9.33-7.43-12.19-4.59-2.97-10.16-3.71-15.43-2.28-6.09 1.65-15.74 7.15-11.43 14.71 4.78 8.38 17.75 0.84 12.95-7.57l-0.01-0.01c-2.56-4.49-8.17-4.56-11.78-1.52-23.88 20.11-60.8 12.97-75.77-14.2-13.91-25.27-2.41-58.07 23.99-69.48 16.5-7.13 36.34-4.54 50.44 6.61 3.61 2.86 9.26 3.13 11.78-1.52v-0.01c-3.42 0.9-6.84 1.79-10.26 2.69 8.6 6.06 19.59 7.25 27.5-0.57 2.8-2.76 4.06-5.73 4.12-9.52 0.15-8.7 0-17.41 0-26.11v-82.65-21.6l-7.5 7.5h125.91c15.21 0 20.82-19.62 12.7-30.89-0.9 3.42-1.79 6.84-2.69 10.26l0.01-0.01c4.49-2.55 4.55-8.17 1.52-11.78-20.11-23.88-12.97-60.8 14.2-75.77 25.27-13.91 58.07-2.41 69.48 23.99 7.13 16.5 4.54 36.34-6.61 50.44-2.86 3.61-3.13 9.26 1.52 11.78h0.01c-0.9-3.42-1.79-6.84-2.69-10.26-5.98 8.44-7.32 19.41 0.35 27.28 2.7 2.77 5.71 4.8 9.64 4.95 8.12 0.32 16.32 0 24.45 0h86.12 22.87l-7.5-7.5v35.4 85.04 103.44 88.99 29.24c0 4.57-0.54 9.51 0 14.06 0.02 0.2 0 0.42 0 0.62l7.5-7.5c-39.18-0.06-78.36-0.12-117.54-0.17-5.56-0.01-11.11-0.02-16.67-0.02 1.26 0.34 2.52 0.68 3.79 1.02-1.22-0.63-1.61-0.86-2.26-1.78-1.89-2.67-0.1-5.63 2.21-8.9 2.29-3.23 0.64-8.46-2.69-10.26h-0.01c0.51 3.93 1.01 7.85 1.52 11.78 13.28-16.8 18.53-38.61 12.45-59.42-5.03-17.23-17.47-32.29-33.72-40.06-34.53-16.51-76.11 0.45-89.35 36.3-8.18 22.13-2.63 46.74 12.34 64.52 0.51-3.93 1.01-7.85 1.52-11.78l-0.01 0.01c-3.26 1.88-5.06 6.98-2.69 10.26 1.21 1.68 1.28 1.7 1.64 3.3 0.55 2.46-0.05 4.36-2.66 6.24 1.26-0.34 2.52-0.68 3.79-1.02h-112.48-15.94c-9.7-0.04-9.72 14.96-0.05 14.96z"/>
	</g>
</g>
</svg>