<?xml version="1.0" encoding="UTF-8" standalone="no"?><svg xmlns="http://www.w3.org/2000/svg" xmlns:xlink="http://www.w3.org/1999/xlink" contentScriptType="text/ecmascript" fill="#000000" width="186.4" zoomAndPan="magnify" contentStyleType="text/css" viewBox="-1.8 -1.9 186.4 178.7" height="178.7" preserveAspectRatio="xMidYMid meet" version="1"><g id="change1_1"><path fill="inherit" d="M165.3,176.83A17.77,17.77,0,1,0,155.91,144l-41.37-41.44A32.25,32.25,0,0,0,112,59.93l18.29-23.37A17.78,17.78,0,1,0,124,31.63L105.69,55a32.24,32.24,0,0,0-36.38,2.16L39.55,27.21a17.83,17.83,0,1,0-5.67,5.64L63.64,62.79a32.3,32.3,0,0,0-5.86,28l-25.42,10.1A17.74,17.74,0,1,0,35.54,111a18,18,0,0,0-.23-2.67l25.43-10.1a32.28,32.28,0,0,0,48.14,10l41.37,41.44a17.74,17.74,0,0,0,15.05,27.17Zm-147.53-56A9.77,9.77,0,1,1,27.54,111,9.78,9.78,0,0,1,17.77,120.8Zm157.3,38.26a9.77,9.77,0,1,1-9.77-9.76A9.78,9.78,0,0,1,175.07,159.06ZM137.77,10.7A9.77,9.77,0,1,1,128,20.47,9.79,9.79,0,0,1,137.77,10.7Zm-123,7.07a9.77,9.77,0,1,1,9.77,9.77A9.78,9.78,0,0,1,14.76,17.77Zm50,64.93A24.32,24.32,0,1,1,89.07,107,24.35,24.35,0,0,1,64.75,82.7Z"/></g></svg>