<?xml version="1.0" encoding="UTF-8" standalone="no"?><svg xmlns="http://www.w3.org/2000/svg" xmlns:xlink="http://www.w3.org/1999/xlink" contentScriptType="text/ecmascript" fill="#000000" width="501" zoomAndPan="magnify" contentStyleType="text/css" viewBox="-0.9 -1.1 501.0 396.5" height="396.5" preserveAspectRatio="xMidYMid meet" version="1"><g id="change1_1" clip-rule="evenodd" fill-rule="evenodd"><path fill="inherit" d="M478.0798645,147.2183685 c-7.0622253-15.8555145-18.4069214-27.526329-32.0591736-35.3636703 c-11.809906-6.7770615-25.3609314-10.6769867-39.3424377-11.8829422l1.0444641-8.2521439 c0-4.7227631-1.3296204-9.3949127-3.5073547-13.6681061c-2.0796204-4.0707169-4.9219666-7.7774429-7.9953918-10.7907791 c-3.6688538-3.5991211-7.7650757-6.5966148-12.2156372-8.7712708c-4.6213074-2.2538681-9.6193848-3.6308022-14.9308472-3.8808022 c-1.2917175-0.0633698-7.5367126,1.0794067-10.5661011,1.6619034l-6.9513245-19.030365 c-5.20401-7.3815823-11.8191833-13.4086418-19.1947632-18.3307915 c-7.2391968-4.8303785-15.2094727-8.5939093-23.2558594-11.5535364c-16.79599-6.1725378-36.3168945-8.4737396-55.4989319-6.8531804 c-19.2011414,1.6207526-38.044693,7.1760173-53.4823151,16.5834923 c-5.4571228,3.3268986-10.8889313,6.792902-15.9281616,10.7685661c-3.4629059,2.7318439-6.7391815,5.7009373-9.7241211,9.0214596 c-0.778595,0.8672752-3.481842,4.7956047-5.2165833,7.3595581c-2.6145782-1.8865967-6.8276825-4.8620644-8.0210724-5.4381866 c-4.5423279-2.1904984-9.4897766-3.8744278-14.5481415-4.7797585c-5.2322388-0.9370193-10.5817413-1.0382576-15.7509918-0.0475273 c-6.8402328,1.3104706-13.2026901,4.3334694-18.6787415,8.5877266c-5.3527908,4.1561127-9.857048,9.4866867-13.1300507,15.5009918 L95.6601334,68.194458c-3.8807983-0.9590454-9.4169388-2.3740387-10.4679489-2.4215622 c-5.0233841-0.2152252-10.2811203,0.6141815-15.3330994,2.2190857c-4.8935547,1.5541-9.587925,3.8332825-13.6711998,6.5427094 c-7.5494728,5.0077362-14.1652107,11.6518784-19.3626709,19.30896c-5.1437473,7.5809631-8.9010963,16.1528549-10.819376,25.0951004 l-0.4841595,16.6310272c-1.7536736,3.393158-9.1860676,6.9575043-14.6748705,12.2024841 c-2.630415,2.5100555-4.925241,5.2988892-6.4762483,8.3725128c-5.1248159,10.135437-5.2355194,17.6912994-2.9281349,23.914444 c3.0736141,8.2838287,11.3385057,14.2283936,19.4546337,21.3535919l-0.1995754,0.3228455l-5.7894239,12.6489716 c-2.0734186,5.9826202-3.4503536,12.0442657-4.1561117,18.1914978c-0.6995764,6.1217194-0.7281704,12.3290405-0.1045218,18.6250305 c2.9248505,29.44133,18.1028137,50.6019135,38.7695808,62.2124481 c19.9482574,11.2086792,45.1225662,13.4973145,69.5308456,5.4445496c1.7789764,6.7200623,3.0071487,13.5257263,3.747879,20.3881836 c0.8831177,8.166748,1.0730286,16.4157715,0.6678925,24.7026978l-2.0131454,16.2131348 c-0.5254974,2.4911194-3.0799866,8.0274353-2.9882202,9.4010925c0.1487656,2.2252808,1.3137589,3.5073547,2.5639572,4.2542725 c1.0318756,0.6205444,3.0799866,1.5479126,5.9066925-0.2277832c9.2270279-5.7863464,17.4538651-14.0417786,24.2372971-23.4492493 c6.6377563-9.2017212,11.8924103-19.4986877,15.3806305-29.5773315l4.3240051-16.9949951l13.7028809,7.8881531 c7.1284943,2.8836975,15.2950439,4.6531982,23.4870911,4.9760437c8.3344421,0.3259277,16.6880188-0.8516235,24.0284424-3.7921143 c6.4986572-2.6051025,12.9212036-5.8939514,18.9258423-9.8317566c6.0394287-3.9567261,11.6549683-8.5718689,16.5201416-13.8010254 l7.0714722-8.8346252c0.9211731,1.3580017,1.9911194,2.7507629,2.8265381,3.3363647 c2.6877747,1.889679,5.767395,3.2032471,8.9868774,4.0073547c3.0703125,0.7660217,6.2642822,1.0666504,9.3218689,0.9876404 c4.602417-0.1172791,8.2330017-1.1397095,11.3512573-2.6557312c6.0394287-2.9343262,9.7048035-8.2426758,15.8423767-12.0000305 c3.5262756,2.0003967,9.4992371,5.5614624,10.7055969,5.9888c6.2928772,2.2158203,12.6422119,3.6371765,19.071106,4.3240051 c6.4007263,0.6868286,12.8833313,0.6456909,19.4645081-0.0600891c12.4745178-1.3421631,23.9266052-4.9412537,33.9231567-10.9745178 c9.9772339-6.017395,18.5143433-14.453064,25.1426392-25.5413818l7.9513245-20.8916473 c3.2128906-3.4407043,11.0123901-4.0960236,16.6437683-6.7326202c2.0509949-0.9592438,3.8995361-2.0923615,5.4219666-3.4408875 c12.0510254-10.6642456,19.5560608-25.902298,22.3508606-42.1281738 C486.2688293,178.4195404,484.4484863,161.5132141,478.0798645,147.2183685z M473.5342712,192.673233 c-2.4022522,13.9403229-8.7299194,27.0987701-19.0838928,36.2595367 c-4.1375732,3.6653748-11.8516541,4.5993042-17.0205078,6.9575043c-2.3392639,1.0635681-4.3017883,2.3549042-5.7357178,3.890274 c-1.2596741,1.3483429-2.3898926,3.2476807-3.3458252,5.5235748c-2.1936035,5.2133026-3.4567261,13.0033112-5.8941345,17.0834808 c-5.7225952,9.5720825-13.0726624,16.8715515-21.6824341,22.065918c-8.768158,5.2925415-18.83078,8.4009094-29.7705383,9.5753784 c-5.8527832,0.6267395-11.6170959,0.67099-17.3083496,0.0600891c-5.6565247-0.6045227-11.2434692-1.8549194-16.7797852-3.8048706 c-1.2028809-0.4240723-7.6916809-4.5073547-10.4328003-6.017395c-3.1182251-1.7187195-5.6885681-0.8514404-5.9922791-0.6994019 c-6.6124573,3.2983093-10.4679565,8.3881531-15.7542725,11.9175415c-2.4436035,1.6333008-5.3114624,2.7888184-9.3470154,2.893158 c-2.168457,0.0570068-4.4320068-0.1487732-6.6097412-0.6899109c-2.006958-0.5002136-3.9404907-1.2915344-5.6182556-2.4660034 c-1.6557007-1.1647949-2.6116638-4.7225647-3.9884033-5.900116c-2.3172302-1.9783936-4.8369446-2.4184875-7.7202759-0.620575 c-1.6460571,1.0287781-3.2669983,2.598938-4.7928772,4.4727783c-2.3609009,2.8995361-4.5231934,6.6663513-6.634491,8.9358521 c-4.3145294,4.6373901-9.2998657,8.7175598-14.6555481,12.2278137c-5.4381866,3.5643311-11.2592926,6.5398254-17.1437683,8.8980103 c-6.0649261,2.4310303-12.9749146,3.3458252-19.8628693,3.0736084c-7.0017548-0.2755127-13.987854-1.7758789-20.0842743-4.2416992 l-11.480896-6.6252136c-1.4308319-1.0919495-3.0989227-4.3301697-4.3777008-5.2986755 c-1.4339294-1.0921631-2.886795-1.3865967-4.1213379-1.3010254c-1.6491547,0.1170959-3.4629211,0.7880859-4.7416992,3.1970825 c-1.2662354,2.3865967-2.2127228,5.2544556-2.9629211,8.3406372c-1.3641815,5.6091614-2.0448151,12.0506287-3.7129059,16.8715515 c-3.1812286,9.1860657-7.9737396,18.5744019-14.0226288,26.9658508 c-3.2857513,4.5519714-6.9385834,8.8157043-10.9142456,12.5761414l1.5382538-12.348175 c0.4337463-8.8187866,0.2279816-17.5964355-0.7121277-26.2854004c-0.9433899-8.7395935-2.6273193-17.3873901-5.1406555-25.8990173 c-0.5063782-1.7125244-1.8390732-2.9565125-3.4343185-3.421936c-1.3485336-1.0950623-3.2256622-1.4654236-4.9665909-0.8103027 c-22.6167297,8.499054-46.2937393,6.9797363-64.8492279-3.4439697 c-18.026886-10.1323547-31.0999374-28.6972961-33.6511383-54.3843689 c-0.5508118-5.5680084-0.528595-11.059906,0.0917702-16.4758759c0.6172733-5.4128723,1.8326931-10.7527161,3.6592026-16.0232086 l5.0266705-10.9553986c0.1771641-0.316452,1.5256977-2.4499664,2.0448265-3.3330688 c2.0765114-3.5262909-0.5477219-6.5206909-0.6964855-6.6599884c-7.7488556-7.2424774-16.9347286-12.1930237-19.9134827-20.2173767 c-1.5351648-4.1371918-0.9337339-9.087738,2.4721842-15.8236389c1.0477219-2.0765228,2.6559172-3.918869,4.4316149-5.6153564 c6.428915-6.1408539,14.6240616-10.9016876,16.6783524-14.8773499c0.6837349-1.3232117,1.1553345-3.2129059,1.3168488-5.4571075 c0.3133698-4.2795715-0.6078072-10.5218582,0.0728378-13.6967087c1.6458664-7.6760178,4.8809967-15.0291977,9.296772-21.5340424 c4.45364-6.5618362,10.1134224-12.2658615,16.580204-16.5581818c3.3269043-2.206337,7.153801-4.0643387,11.1389313-5.330574 c3.8997345-1.2376328,7.9515228-1.9149933,11.8323212-1.7503891c1.1141891,0.050621,8.1128464,2.0796051,11.0027237,2.7633362 c3.3680573,0.7977219,5.5649261-0.6362076,5.7643127-0.8039017c0.9812622-0.8230286,2.0606689-2.3297958,2.9248505-4.368248 c1.3672714-3.231842,2.4466782-8.5118027,3.573616-10.5850258c2.6051025-4.7861366,6.1850967-9.0309296,10.4426346-12.3386993 c4.2194824-3.2762833,9.1068573-5.6311951,14.3771515-6.6410484c3.9567261-0.7596626,8.0527649-0.6456718,12.0570221,0.0697441 c4.1530151,0.7438202,8.2077026,2.1365967,11.9366455,3.9345131c1.7440186,0.8388748,7.2519379,5.5110245,10.0119934,6.9068909 c1.8359833,0.9306412,3.4061127,1.0193214,4.3240051,0.8831177c0.9020538-0.136013,2.4880219-0.7154198,4.010437-2.3709488 c2.0322723-2.2125244,5.6313934-8.3723106,6.8184052-9.6922493c2.5987396-2.8900757,5.4571228-5.4667816,8.4673615-7.8439102 c4.7194824-3.7223778,9.8159027-6.9544182,14.9246826-10.0689907c14.158844-8.6288795,31.4577484-13.655549,49.0667419-15.1431866 c17.6754608-1.4942074,35.6704559,0.5792122,51.1496429,6.2704906c7.3052673,2.6874065,14.5541077,6.0838585,21.1256104,10.4712315 c6.3465881,4.2320404,12.0629883,9.3916321,16.5421448,15.741333c2.168457,3.0767059,4.6661682,14.2316704,6.8755798,18.7865486 c0.9559631,1.9658089,2.0857849,3.2192879,2.9528809,3.8301811c0.6363831,0.4462967,2.2411194,1.1870193,4.6375427,0.9718018 c2.7983093-0.2469101,9.3188171-2.0133362,10.8477783-1.9404984c3.9026489,0.186821,7.5715027,1.2092361,10.9648743,2.8678513 c3.4911194,1.7030563,6.6912842,4.0738144,9.5687866,6.8974228c2.3265076,2.2822723,4.4919128,5.0803833,6.0649414,8.1634674 c1.4466553,2.8394547,2.4026184,5.9225311,2.4026184,9.0593262l-0.8767395,7.2900009 c-0.2944336,1.0224152-1.6240234,2.7032547-1.8867798,3.6275177c-0.4304504,1.5382614-0.2090454,2.8267059,0.1932068,3.7826614 c0.6896973,1.6427765,1.9942017,3.231842,4.950531,3.3141479c14.5321045,0.4082336,28.8110962,3.9155807,41.0012512,10.9109573 c11.8578186,6.8056488,21.7210388,16.9349136,27.852417,30.7011642 C474.4048157,163.8619385,475.9430847,178.6790009,473.5342712,192.673233z"/><path fill="inherit" d="M39.8607712,152.6660156 c0.474884-0.0569916,0.5032845-0.5001984,0.3133698-1.1143799c-0.1170807,0.0096588-0.164608,0.3672791-0.1962929,0.4938202 C39.9399834,152.2133484,39.6138611,152.6944122,39.8607712,152.6660156z"/><path fill="inherit" d="M38.4015312,132.7208405 c-0.3767395,2.332901-0.6331139,4.7511749-0.6868248,7.1760254c-0.0539017,2.4594269,0.1043282,4.918869,0.4430084,7.2992706 c0.1456718,0.8356018,1.604908,3.0102539,2.0164261,4.3554993c0.0189323-0.0061798,0.0411491,0,0.0664597,0.0191345 c1.9688988,1.6555176-6.5776787,4.2795563-8.014698,5.3241882c-5.8052654,4.4694824-10.8889294,10.8951111-11.2973537,17.3810272 c-0.2658424,4.1910858,1.2693233,8.3535614,5.9350967,11.7942657c-3.4723797-3.8713379-4.2225742-7.7266388-3.2919312-11.3763733 c1.3485336-5.3083649,6.428915-9.8982086,11.8765659-12.7977448c1.5351677-0.8672791,6.150322-2.5639496,8.6889648-4.3271027 c1.5952492-1.1078033,2.4688988-2.4719849,2.8297958-3.5546722c0.2343521-0.699585,0.2691269-1.7567749,0.0697479-3.0102539 c-0.2438202-1.557373-1.1143761-3.8143311-1.2281723-4.8746185c-0.2691269-1.9880219-0.3450546-4.0423126-0.3166542-6.0935211 c0.028595-2.0890656,0.1615143-4.1781311,0.4337349-6.1945648c1.139492-11.0251312,5.4824257-21.4708557,12.1994019-29.9065399 c6.9575119-8.7333984,16.3269196-15.3489456,27.8078156-18.0046692 c-12.2531128,1.1837387-22.9585037,6.729538-31.1822433,14.9975204 C46.3339272,109.3888931,40.7471695,120.6829605,38.4015312,132.7208405z"/><path fill="inherit" d="M57.5267601,286.2926025 c-2.3645706-2.0828857-4.5295677-4.3777161-6.6219215-6.7834473c-2.0701332-2.3804016-4.0423164-4.8587646-5.8307686-7.4955444 c-3.6083908-5.3242188-6.5332413-11.1263733-8.4293022-17.2767029c-2.9629097-9.6165161-3.6939774-19.7583466-1.0001945-29.4316559 c-4.4886093,9.5181732-5.6850967,20.1855011-4.0264759,30.5997467c1.1205578,7.0429077,3.5674343,13.8991699,7.1284885,20.0717163 c1.8106689,3.1367798,3.9281387,6.096405,6.3624535,8.7331848c2.4721832,2.6748657,5.2513618,5.0361633,8.2552338,7.0209045 c4.5328522,2.9913025,9.4741249,5.2227478,14.7666397,6.4130554c5.0456009,1.1331177,10.2241287,1.2977295,15.6306305,0.4874573 c-5.1912766-0.5856018-9.857048-2.149353-14.3201599-4.2764893 C65.0634842,292.2688599,61.1670303,289.5024109,57.5267601,286.2926025z"/><path fill="inherit" d="M144.6287231,323.8531494 c-0.9401093-3.8332825-2.2727966-7.505249-4.0169983-11.0282288c-2.5701447-5.1976624-5.8780975-9.8000488-9.9994354-14.1018372 c2.535553,5.1248169,3.9884033,10.335022,5.1217194,15.7826843c0.7691345,3.7034302,1.1394958,7.4068909,1.5921631,11.1769714 c0.2944336,2.4752808,0.5666504,4.9538269,0.9306335,7.4321899c0.3734589,2.5450439,0.8894958,4.998291,1.3388824,7.5369263 c0.7059479,4.0168152,1.5098572,7.7171631,1.978363,11.7498169c0.9940186-2.8013916,1.9088135-5.3970337,2.6114807-8.3027344 c0.6962891-2.8711548,1.1522369-5.6820068,1.3894958-8.6257935c0.1584167-1.9497681,0.1837311-3.8964539,0.0316772-5.8431396 C145.451767,327.6800537,145.0939484,325.7459106,144.6287231,323.8531494z"/><path fill="inherit" d="M369.8965149,44.3686829l-0.186615-0.3892975 c-0.0981445-0.1584244-0.0827026-0.1456757-0.2125244-0.278595l-0.0282288-0.0127525l0.3829346,0.6711769L369.8965149,44.3686829z"/><path fill="inherit" d="M354.5317383,23.1066647 c4.0421143,7.4735451,5.9888,15.6497593,9.6387329,24.5255451c0.3291931,0.7691307,1.2218018,1.6522446,2.6205444,2.320137 c1.5386658,0.7376366,4.263916,1.2915421,5.1252136,1.5479164l14.7662659,5.2735786 c6.4764404,2.2948265,12.1425781,5.5900421,17.0552673,9.7683716c5.1213379,4.3554916,9.4358826,9.4644699,12.4745178,16.0643616 c-1.4938049-7.5241623-4.4567261-14.0164413-8.9296875-19.5272713 c-4.5641479-5.6281013-10.6638489-9.9014893-17.5328674-13.4213943c-2.6147766-1.1141815-5.2388-2.1524353-7.9262085-3.0007782 c-2.6874084-0.851429-5.4285278-1.5224113-8.2109985-2.1080017c-0.5061951-0.0981445-2.6306152,0.0506172-3.7160034-0.1804466 c0.0629883,0.1454773,0.1201782,0.2785912,0.1646118,0.3545189l-0.2090454-0.363987 c-0.4621277-0.101429-0.7218018-0.2818794-0.5541077-0.5824966c0.0541077-0.0950546,0.1109009-0.1170807,0.1711731-0.0886803 c-4.5455933-8.0019455-7.5115967-15.6020355-12.474884-22.1640644c-3.348938-4.4283314-7.520874-8.337534-13.5858154-11.6010637 C348.6661987,13.9967184,351.9803467,18.3935585,354.5317383,23.1066647z"/><path fill="inherit" d="M499.9396362,180.8188782 c-0.2086487-5.3178101-0.9969177-10.6547699-2.2407227-15.8869934 c-2.4660034-10.3636322-6.7106018-20.3630676-12.430481-29.2514038 c-8.6951294-13.5129776-20.7647095-24.3893433-35.1990662-30.2863846 c13.2689819,7.2328186,23.5564575,19.0523911,30.7357788,32.8756332c4.567627,8.7965851,7.7426758,18.4003448,9.5911865,28.2162476 c0.9180908,4.8842773,1.478363,9.8095245,1.7693481,14.7191162c0.2944336,4.9727631,0.3164368,9.9138489-0.0792236,14.7950439 c-0.6105042,7.5430908-2.0888672,14.8582153-4.7384033,21.7745667c-2.7160034,7.0937195-6.419281,13.7156372-11.6008911,19.5873718 c6.3052673-5.0519867,11.3794861-11.0566406,15.2253113-17.8812256c3.9122925-6.9385681,6.5112-14.6018372,7.9068909-22.6167297 C499.7912598,191.6222229,500.1552429,186.2317657,499.9396362,180.8188782z"/></g></svg>