<?xml version="1.0" encoding="UTF-8" standalone="no"?><svg xmlns="http://www.w3.org/2000/svg" xmlns:xlink="http://www.w3.org/1999/xlink" contentScriptType="text/ecmascript" fill="#000000" width="32" zoomAndPan="magnify" contentStyleType="text/css" viewBox="0.0 0.0 32.0 32.0" height="32" preserveAspectRatio="xMidYMid meet" version="1"><g id="change1_1"><path fill="inherit" d="M16,32C7.178,32,0,24.822,0,16S7.178,0,16,0s16,7.178,16,16S24.822,32,16,32z M16,2C8.28,2,2,8.28,2,16s6.28,14,14,14 s14-6.28,14-14S23.72,2,16,2z"/><path fill="inherit" d="M15 24H17V26H15z"/><path fill="inherit" d="M17,22h-2v-2.615c0-1.86,1.116-3.508,2.844-4.2C19.153,14.662,20,13.411,20,12c0-2.206-1.794-4-4-4s-4,1.794-4,4h-2 c0-3.309,2.691-6,6-6s6,2.691,6,6c0,2.233-1.34,4.213-3.414,5.042C17.623,17.428,17,18.348,17,19.385V22z"/></g></svg>