<?xml version="1.0" encoding="UTF-8" standalone="no"?><svg xmlns="http://www.w3.org/2000/svg" xmlns:xlink="http://www.w3.org/1999/xlink" contentScriptType="text/ecmascript" fill="#000000" width="31" zoomAndPan="magnify" contentStyleType="text/css" viewBox="0.5 0.5 31.0 31.0" height="31" preserveAspectRatio="xMidYMid meet" version="1"><g id="change1_1"><path fill="inherit" d="M16,0.5C7.45313,0.5,0.5,7.45313,0.5,16S7.45313,31.5,16,31.5S31.5,24.54688,31.5,16S24.54688,0.5,16,0.5z M3.5,16 C3.5,9.10742,9.10742,3.5,16,3.5c2.9068,0,5.57837,1.0058,7.7038,2.67621L6.17621,23.70374C4.5058,21.57825,3.5,18.9068,3.5,16z M16,28.5c-2.9068,0-5.57837-1.0058-7.7038-2.67621L25.82379,8.2962C27.4942,10.42163,28.5,13.0932,28.5,16 C28.5,22.89258,22.89258,28.5,16,28.5z"/></g></svg>