<?xml version="1.0" encoding="UTF-8" standalone="no"?><svg xmlns="http://www.w3.org/2000/svg" xmlns:xlink="http://www.w3.org/1999/xlink" contentScriptType="text/ecmascript" fill="#000000" width="290.4" zoomAndPan="magnify" contentStyleType="text/css" viewBox="-0.1 -2.3 290.4 503.7" height="503.7" preserveAspectRatio="xMidYMid meet" version="1"><g id="change1_1"><path fill="#d3b094" d="M164.3,189.6c-2.2,19.5-14,26.8-14,26.8s-6.4-10.9-5-32.3s14.9-31.1,14.9-31.1 C164.1,164.8,165.5,177.3,164.3,189.6z M258.1,285.7c-15.1-8-30.9-7.9-38.4-7.2c-5.2-21.6-10.6-33.4-16-41.7 c2.3,0.9,5.1,1.9,8.4,3.1c16.3,6,41.9-5.3,41.9-5.3s1.4-19-30.8-22c-18.5-1.7-28.7,1.9-34,5.3c-2.3-3.3-4.6-7-6.8-11.9 c-8.7-19.2-16.9-40.4-20.9-66.6c2.7,5.7,7.7,12.6,17,18.3c20.1,12.4,36.9,7.7,36.9,7.7s-1.6-19.6-17.9-30 c-15.1-9.7-29.9-9.6-37.5-8.1c-0.3-3.2-0.5-6.4-0.7-9.8c-0.7-14.5,8.4-34.8,19.2-53.5c-2.1,10.3-3.5,24.8,1.6,35.8 c8.8,18.7,28.1,27,28.1,27s9.1-19.3,3.3-37.6c-5.3-16.9-13.7-29.9-26.4-36.1c12.3-19.7,24.7-35.6,26.5-37.9C242.1,2.3,269,2,269.4,2 h1V0h-1c0.9-1.4-53.5-2.3-99.1,39.5c-6.1,5.5-11.7,10.5-17.1,15.4c-3,2.7-6,5.3-8.8,7.9c-1.6-1.4-2.7-1.7-2.7-1.7 s-22.8-3.9-41.3,5.3c-10.8,5.3-18.6,15.3-21.1,27.1c0,0,21.4,4.6,31.2-1.1c3.3-1.9,7.4-4.9,11.4-8c-14,14.9-23.3,29.5-28.2,50.4 c-0.1,0.6-0.3,1.2-0.4,1.8c-0.2,0-0.4,0.1-0.6,0c0,0,0,0,0,0c-4.3-0.6-16.7-0.7-37.2,11.1c-26,14.9-30.2,28-30.2,28 c11.1,4.3,23.5,4.3,34.6,0c12.6-4.7,23.6-13.3,29.6-20.8c-2.3,12-4.6,25.3-7,39c-1.5,8.5-3,17.1-4.5,25.6c-1.4-0.6-2.2-0.9-2.2-0.9 s-9-8.9-36.8,10.7C11,248.9,7.3,262.6,7.3,262.6s25.3,12.5,38.6,3S75.6,225,75.6,225s0.1,1.4,0.5,3.8c-3.3,17.7-6.8,34.2-10.6,47.1 c-0.8,2.8-1.6,5.5-2.4,8.3c-2,6.8-4,13.5-5.9,20.1c-0.1,0-0.2,0-0.2,0c-0.9,1.8-1.4,3.5-1.5,5.1c-1.1-0.4-2.3-0.5-3.5-0.1 c-7,2-17.3,6.3-29,15.1C7.7,336,2.1,355.9,0.1,366.5c-0.2,0.8-0.1,1.6,0.1,2.4c0.8,3,3.8,4.8,6.8,4.1c4.6-1.2,11.7-3.9,22.2-9.8 c7.7-4.4,13.8-11.8,18.5-19.8c-2.2,11.8-3.3,22.9-2.7,32.9c0.9,15.8,4,35,6.4,48.4c-1.1-0.8-2.4-1.3-3.9-1.2c-0.5,0-1,0.1-1.5,0.3 c-9.2,3.2-25.1,10.9-31.9,26.9c-4.3,10-4.9,18.1-4.2,24.1c0.5,3.9,4.1,6.7,8,6.3c1.6-0.2,3-0.9,4.2-2c4.6-4.6,10.2-10.1,13.8-13.4 c4.2-3.9,11.3-5.9,15.2-14.5c0.9,7.1,2.7,14.6,6,20.6c8.4,15.3,14.7,26.3,27.3,29.2c1.8,0.4,3.6-0.7,4.1-2.5 c1.9-6.7,5.5-22.9-0.9-30c-6.3-6.9-24.4-27.1-32.8-36.5c-1.7-9.1-4.4-24.2-6.2-39c2.5,6,8.6,14.8,24,23.6 c20.5,11.8,37.5,5.8,44.5,2.1c0.3-0.1,0.5-0.3,0.7-0.5c1.2-1.2,1.3-3.2,0-4.5c-5.9-5.9-19.9-19.3-31.3-24.3 c-11.6-5.1-29.2-4.8-36.4-4.4c-0.2,0-0.3,0-0.5,0.1c-0.8,0.2-1.5,0.6-1.9,1.2c-0.3-3.4-0.6-6.8-0.8-10c-0.7-11.6,1-24.7,3.9-38.8 c3.3-6.6,5.6-13.2,7.3-18.5c5,7.6,15.9,14.2,25.2,21.4c9.7,7.5,20.9,9.2,27.5,9.6c0.3,0,0.6,0,0.9,0c2.7-0.4,4.5-2.9,4.1-5.5 c-1.2-8.9-5.1-26-17-33.8c-13.4-8.7-32.9-7.3-39.5-6.5c1.8-6.3,3.7-12.7,5.6-19.2c0.8-2.8,1.6-5.5,2.4-8.3 c3.4-11.7,6.6-26.2,9.6-41.9c1.8,10.3,5.6,26.4,12.5,34.4c10.7,12.5,41.1,25.6,41.1,25.6s0.3-28-14.2-47.1 c-10.9-14.5-28.8-23.8-36.8-27.4c1.6-8.6,3.1-17.4,4.6-26c2.7-15.4,5.3-30.3,7.9-43.4c1.4-2.3,2.1-4.4,2.1-6.1 c0-7.8,2.4,16.7,9.5,28.6c6.3,10.6,22.5,23,26.1,25.7c0.3,0.2,0.6,0.1,0.8-0.1c0.1-0.1,0.1-0.1,0.1-0.2c1-4.2,5.1-23.1-0.2-37.9 c-5.1-14.2-26.8-28.3-33.3-32.3c6.9-22.8,20.1-38,40-56.6c-1.4,3.3-8.1,20.3-8.2,35.9c-0.2,17.3,9.8,32,9.8,32s24.9-24.2,17.3-53.8 c-3.2-12.3-7.3-18.7-10.4-21.9c2.8-2.5,5.6-5.1,8.6-7.7c5.4-4.9,11.1-9.9,17.1-15.5c11.5-10.6,24.1-18.2,36.3-23.9 c-8.7,11.4-16.9,23.2-24.5,35.3c0,0,0,0,0,0c-0.5-0.2-1-0.4-1.4-0.6c0,0-0.8,2.2-1.7,5.8c-15.7,26.1-23.3,46.3-22.7,60.2 c1.7,37,12.2,64.7,23.2,89.2c2.3,5,4.6,8.8,6.9,12.2c-2.6,2-3.5,3.8-3.5,3.8s-11.6,6.1-19.4,22.9c-13.4,28.9-6.2,58.6-6.2,58.6 c10.8-6.3,19.7-15.4,25.6-26.4c9.4-17.9,9.4-45.2,9.4-45.2s1.2,0.5,7.1,2.8c5.8,8.2,11.6,19.8,17.2,43.1c-1.5,0.2-2.4,0.4-2.4,0.4 c-11.9,16-20.4,34.3-25.1,53.7c-4.3,18.1-3.7,26.6-2.4,30.7c0.8,2.4,3.1,4,5.7,3.8c7-0.6,22-6.9,26.7-33.3c2-10.9,3.2-20.2,3.9-27.8 c4.2,16.9,7.7,28.6,9.1,33.2c-6,6.6-18.5,22-21.6,37.4c-4.1,20.4-3.8,39.8,2.9,42.6c6.7,2.9,23.1-18.7,26-37.6 c2.1-14.5-1.5-33.8-3.2-41.9c-0.2-1.1-1.3-1.8-2.4-1.7c-1.6-5.5-5.6-18.9-10.3-38.1c0.8-10.8,0.6-16.6,0.6-16.6s6.9,16.5,27.3,30 c20.4,13.5,31.7,16.7,34.7,13.2C290.3,323.2,278.8,296.7,258.1,285.7z"/></g></svg>