<?xml version="1.0" encoding="UTF-8" standalone="no"?><svg xmlns="http://www.w3.org/2000/svg" xmlns:xlink="http://www.w3.org/1999/xlink" contentScriptType="text/ecmascript" fill="#000000" width="440.6" zoomAndPan="magnify" contentStyleType="text/css" viewBox="50.4 26.2 440.6 677.4" height="677.4" preserveAspectRatio="xMidYMid meet" version="1"><g id="change1_1"><path fill="#687a61" d="M333.6,362.4c0,0-1.3-46,6.4-107.4s58.6-168.7,92.6-195.6s50.6-33.2,50.6-33.2s3.8,55,0,71.6 s-24.3,81.8-29.4,103.5s-15,84.4-44.6,94.6S354,329.1,354,329.1l3.9,107.4c0,0,14.6-2.1,24.4-6.3c21.5-9.3,25.3-16.7,50.4-12.9 s52,33.2,35.3,124c0,0-32,20.5-104.9,0l17.7,109.9l9.2,52.4h-14.1c0,0-20.4-35.2-23-86.9c-1.6-30.6-2.6-81.8-2.6-81.8L325,524 c-12.3-5.3-31.5-24.9-27.8-41.3s13.1-40.9,34.8-42.9l13.5-2c0,0-18.4-51.9-24.1-62.6S307.8,345,307.8,345s-85.9,6.5-122.6-4.1 s-44.2-28.7-74.9-55.2S51,240.3,51,210.8c0-17.6,115.3-9,151.7,9.4s51.1,22.9,70.3,46.6s33.9,43.8,42.5,59.7 S333.6,362.4,333.6,362.4z"/></g><g id="change2_1"><path fill="#f6f2ef" d="M333.9,332.1c0,0.3-1,0.3-1,0c0.2-3.1,0.5-6.1,0.8-9.2c2.7-25.3,8.4-50.1,15.8-74.4 c6.7-22,14.5-43.7,23.4-64.8c8.5-20.2,18.2-39.8,29.2-58.7c10.9-18.7,23.4-36.5,37.3-53.2c13.8-16.4,29.4-31.4,46.4-44.5 c0.2-0.2,1.2,0,0.9,0.2c-2.1,1.6-4.2,3.2-6.2,4.9c-16.8,13.7-32,29.2-45.5,46.2c-13.4,16.9-25.5,34.8-35.9,53.6 c-10.6,19-20,38.6-28.1,58.7c-9,21.9-16.7,44.3-23.2,67C340.9,282.1,335.8,306.9,333.9,332.1L333.9,332.1z M444.3,68.1 c17.4-0.1,32.6-10,46.5-19.4c0.2-0.2-0.2-1-0.5-0.9c-13.9,9.3-29.1,19.2-46.4,19.3C443.7,67.2,444,68.1,444.3,68.1L444.3,68.1z M434.8,80.6c16.8,1.7,33.7-2,48.2-10.6c0.6-0.3-0.3-0.5-0.6-0.3c-14.2,8.4-30.8,12-47.2,10.3C434.8,80.1,434.2,80.6,434.8,80.6 L434.8,80.6z M407.3,118.1c21.2,0.5,42.3-3.8,61.7-12.5c5.6-2.5,11-5.4,16.3-8.6c0.3-0.2-0.6-0.4-0.9-0.2 c-18,11.1-38.3,18-59.3,20.2c-6,0.6-12,0.9-18,0.8C406.3,117.8,406.9,118.1,407.3,118.1L407.3,118.1z M391.5,147.8 c20.8,2.7,42,2.2,62.7-1.4c5.7-1,11.4-2.2,17-3.7c0.2-0.1-0.1-1-0.5-0.9c-20.2,5.3-41.1,7.5-62,6.6c-5.9-0.3-11.7-0.8-17.5-1.5 C390.9,146.9,391.2,147.8,391.5,147.8L391.5,147.8z M445,65.7l-3.1-14.5c-0.1-0.6-1.1-0.2-0.9,0.3L444,66 C444.1,66.6,445.1,66.2,445,65.7L445,65.7z M435.8,76.4L432,57.8c-0.1-0.4-1.1-0.4-1,0.1l3.8,18.6C434.9,76.9,435.9,76.9,435.8,76.4 L435.8,76.4z M409,117.3l-8.1-21.1c-0.1-0.3-1,0.2-0.9,0.5l8.1,21.1C408.3,118.1,409.2,117.6,409,117.3z M394.1,144.5 c-4-5.4-6.8-11.7-8-18.3c0-0.3-0.8-0.9-0.8-0.5c1.3,6.8,4.1,13.3,8.2,18.8C393.9,145,394.5,145.1,394.1,144.5L394.1,144.5z M383.6,160.1l-5.6-15.8c-0.1-0.2-1-0.1-1-0.1l5.6,15.8C382.6,160.2,383.6,160.1,383.6,160.1L383.6,160.1z M401,129.5l-8-14.6 c-0.1-0.2-1.1-0.2-1,0l8,14.6C400.1,129.7,401.1,129.7,401,129.5L401,129.5z M400.4,126.2c20.9-1.1,41.6-4.4,61.7-10 c5.7-1.6,11.3-3.3,16.9-5.2c0.6-0.2-0.3-0.2-0.5-0.1c-19.5,6.7-39.7,11.3-60.2,13.6c-5.8,0.7-11.6,1.1-17.4,1.4 C400.6,125.8,399.8,126.1,400.4,126.2L400.4,126.2z M422.4,96.4l-5.5-21.1c-0.1-0.3-1-0.7-0.9-0.2l5.5,21.1 C421.6,96.5,422.5,96.9,422.4,96.4L422.4,96.4z M417.9,101.6c18.9,1.4,35.1-10.5,51.8-17.5c4.9-2.1,10-3.7,15.2-4.6 c0,0-0.6-0.4-0.9-0.4c-18.4,3.2-33.4,15.5-51.2,20.4c-5.1,1.5-10.3,2-15.6,1.7C416.9,101.2,417.7,101.6,417.9,101.6L417.9,101.6z M380.1,167.6c23.5-0.8,46.6-5.6,69.3-11.3c6.6-1.6,13.1-3.4,19.6-5.1c0.2-0.1,0.9-0.6,0.7-0.5c-22.7,6-45.5,12-68.8,14.8 c-6.7,0.8-13.4,1.4-20.1,1.6C380.6,167.1,380.2,167.6,380.1,167.6L380.1,167.6z M379.5,176.2c22.2,0.7,44.5-1.8,66-7.5 c6-1.6,12-3.4,17.8-5.5c0.4-0.1-0.5-0.6-0.8-0.5c-20.9,7.3-42.7,11.6-64.8,12.7c-6.2,0.3-12.4,0.4-18.6,0.2 C378.6,175.6,379.2,176.2,379.5,176.2L379.5,176.2z M371.4,186.1c24,2.6,48.2,1.6,71.9-3c6.7-1.3,13.3-2.9,19.8-4.8 c0.6-0.2,0.5-1-0.1-0.8c-23.1,6.6-47.1,9.6-71.1,9.1c-6.8-0.2-13.6-0.6-20.3-1.4C371,185.2,370.8,186,371.4,186.1L371.4,186.1z M366.4,209.4c24.6,0.9,49.1-2.1,72.8-8.7c6.7-1.9,13.3-4,19.8-6.4c0.1-0.1-0.5-0.7-0.7-0.6c-23,8.6-47.2,13.6-71.8,14.9 c-6.9,0.4-13.9,0.4-20.8,0.2C365.7,208.7,366.2,209.4,366.4,209.4z M356.9,234.5c24,1.5,48.1-0.7,71.5-6.5 c6.7-1.7,13.3-3.6,19.9-5.9c0.6-0.2,0.1-1-0.4-0.8c-22.8,7.9-46.7,12.2-70.9,12.7c-6.7,0.2-13.5,0-20.2-0.4 C356.1,233.7,356.4,234.5,356.9,234.5L356.9,234.5z M367.8,195.3c-3.4-2.4-5.7-6.1-6.4-10.3c-0.1-0.5-1.1-0.4-1,0.1 c0.7,4.4,3.2,8.3,6.8,10.9C367.6,196.3,368.3,195.7,367.8,195.3L367.8,195.3z M374.5,181.2c-4.2-4.5-7.3-10-9-15.9 c-0.1-0.2-1-0.3-1-0.1c1.7,6,4.8,11.4,9,15.9c0.2,0.1,0.4,0.2,0.6,0.2C374.2,181.2,374.6,181.2,374.5,181.2L374.5,181.2z M368.1,155.8c1.7,4.6,4.8,8.4,8.9,10.9c0.2,0.1,0.1,0,0.1-0.1c-0.1-0.2-0.3-0.3-0.5-0.5c-3.6-2.3-6.3-5.7-7.7-9.8 c-0.1-0.2-0.3-0.3-0.4-0.4S368,155.7,368.1,155.8L368.1,155.8z M356.1,193c0.1,5.5,3.5,10.3,8.7,12.1c0.6,0.2,0.5-0.8,0-0.9 c-4.7-1.6-7.8-6-7.8-11C357,192.7,356.1,192.4,356.1,193L356.1,193z M361.2,218.1c-4.8-3.6-7.9-8.8-8.9-14.7c0-0.1-0.9,0.2-0.9,0.4 c0.9,5.9,4.1,11.1,8.9,14.7C360.5,218.7,361.2,218.1,361.2,218.1z M351.7,243.4l-6.4-10.7c-0.1-0.2-1,0.2-0.9,0.4l6.4,10.7 C350.9,244.1,351.7,243.6,351.7,243.4z M346.8,256.5l-4.5-13.1c-0.1-0.3-1,0-1,0.3l4.5,13.1C346,257.1,346.9,256.8,346.8,256.5z M342.7,267.1l-4-6.6c-0.2-0.3-1.1,0.1-1,0.3l4,6.6C341.9,267.6,342.8,267.3,342.7,267.1z M342.6,280.2l-1.3-1.3 c-0.1-0.1-0.2-0.1-0.3-0.1c-0.1,0-0.3,0-0.4,0.1c-0.1,0.1-0.2,0.2-0.2,0.3c0,0.1,0,0.2,0.1,0.3l1.3,1.3c0.1,0.1,0.2,0.1,0.3,0.1 c0.1,0,0.3,0,0.4-0.1c0.1-0.1,0.2-0.2,0.2-0.3C342.8,280.4,342.7,280.3,342.6,280.2L342.6,280.2z M349.2,265c14,0.1,28-0.1,41.9-0.7 c11.5-0.5,23.2-1.5,34.2-5.1c6-2,11.6-4.9,16.7-8.7c0.2-0.1-0.5-0.9-0.7-0.7c-9.2,7.1-20.4,10.5-31.7,12.2 c-12.3,1.8-24.8,1.9-37.1,2.1c-8,0.2-16,0.2-23.9,0.2C348.4,264.3,348.9,265,349.2,265L349.2,265z M347.8,252.2 c26.8,3.4,54,1.3,79.9-6.2c7.2-2.1,14.2-4.6,21-7.5c0.2-0.1-0.6-0.6-0.9-0.5c-24.7,10.3-51.1,15.5-77.9,15.2 c-7.5-0.1-15.1-0.6-22.6-1.6C346.8,251.7,347.4,252.2,347.8,252.2L347.8,252.2z M360.7,225.9c25.1,3.7,49.7-4.5,73.3-11.9l21.4-6.7 c0.5-0.1-0.5-0.4-0.7-0.3c-12,3.8-24,7.7-36,11.3c-11.9,3.6-23.9,6.8-36.3,7.9c-7.1,0.7-14.3,0.5-21.4-0.5 C360.6,225.6,360,225.8,360.7,225.9L360.7,225.9z M342.2,273.9c25.7,2,51.6-0.4,76.4-7.1c6.9-1.9,13.7-4.1,20.4-6.6 c0.6-0.2-0.1-0.6-0.5-0.5c-23.8,9-49,13.8-74.5,14.3c-7.2,0.1-14.4-0.1-21.6-0.7C341.9,273.3,341.5,273.9,342.2,273.9L342.2,273.9z M338.6,289.7c13.1,0.6,26.4,1.2,39.5-0.1c12.7-1.4,25.1-4.5,36.9-9.4c6.7-2.6,13.4-5.6,20-8.6c0.2-0.1-0.5-0.7-0.8-0.6 c-11.5,5.2-23,10.3-35.1,13.8c-12.5,3.6-25.3,4.8-38.2,4.8c-7.6,0-15.1-0.3-22.7-0.7C337.6,289.1,338.3,289.6,338.6,289.7 L338.6,289.7z M336.6,311.2c25.2,3,48.3-9.9,71-18.6c6.8-2.7,13.8-4.8,20.9-6.5c0.5-0.1,0.6-0.9,0-0.7 c-24.4,5.3-45.9,19.5-70.4,24.1c-6.9,1.4-14,1.7-21,0.9C336.6,310.4,336,311.1,336.6,311.2L336.6,311.2z M342.5,280.2 c-2.1-1.3-3.8-3-5.2-5c-0.3-0.4-1.2-0.1-0.8,0.4c1.4,2.2,3.3,4,5.6,5.3c0.2,0.1,0.5,0.1,0.7-0.1 C342.9,280.5,342.8,280.3,342.5,280.2L342.5,280.2z M51.2,209.5c21.3,5.2,41.9,13,62.5,20.4c20.8,7.4,41.7,14.6,62.3,22.3 c19.2,7,37.9,15.4,55.9,25.1c16.9,9.2,33,19.8,48.2,31.5c15.3,11.7,29.6,24.5,42.9,38.4c1.6,1.7,3.2,3.4,4.8,5.2 c0.4,0.5,0.9,0,0.5-0.5c-13-14.2-27.1-27.3-42.1-39.3c-15.1-12-31-22.9-47.7-32.4c-17.5-9.9-35.8-18.5-54.6-25.8 c-20.7-8-41.7-15.2-62.6-22.6c-20.7-7.3-41.2-15.2-62.4-21.1c-2.6-0.7-5.2-1.4-7.8-2C50.4,208.5,50.8,209.4,51.2,209.5L51.2,209.5z M119.9,230.6c-1.2-10.4-5.2-20.4-11.6-28.7c-0.4-0.5-1,0-0.6,0.5c6.3,8.2,10.2,18,11.4,28.2C119.1,231.2,120,231.3,119.9,230.6 L119.9,230.6z M130.1,236.2c0.6-12.7-3.2-25.3-10.7-35.6c-0.4-0.5-1-0.1-0.6,0.4c7.4,10.1,11.1,22.4,10.5,34.9 C129.3,236.3,130.1,236.9,130.1,236.2L130.1,236.2z M139.3,237c-2.1-11.1-5.1-22-8.9-32.6c-0.1-0.2-1-0.1-1,0 c3.8,10.6,6.8,21.6,8.9,32.7C138.3,237.2,139.3,237.1,139.3,237L139.3,237z M199.1,217.8c2.9,3.6,5.6,7.4,7.9,11.3 c2.2,4.1,4,8.4,5.5,12.8l10.2,27.8c0.1,0.3,1.1,0,1-0.2c-3.5-9.4-6.9-18.9-10.4-28.3c-1.5-4.4-3.4-8.8-5.6-12.9 c-2.3-3.8-4.8-7.5-7.7-10.9C199.8,217.4,198.9,217.7,199.1,217.8L199.1,217.8z M215.4,226.2c7.8,16.5,18.6,33.3,17.5,52.3 c0,0.4,1,0.4,1,0c0.8-14.7-5.6-28.3-11.9-41.1c-1.9-3.8-3.8-7.6-5.6-11.4C216.2,225.8,215.2,225.9,215.4,226.2L215.4,226.2z M241,239.3c7.7,14.7,11.8,31,11.8,47.6c0,0.5,0.9,0.9,0.9,0.3c0-16.8-4.1-33.4-12-48.3C241.3,238.3,240.6,238.8,241,239.3 L241,239.3z M257.7,250.8c3.5,5.8,7.1,11.8,9.4,18.2c1.8,5.3,2.9,10.7,3.4,16.3c0.5,5,0,10.1,1.1,15.1c0.1,0.3,0.9,0.8,0.8,0.4 c-1-4.5-0.6-9.2-1-13.8c-0.3-3.3-0.7-6.5-1.4-9.7c-1-5.1-2.7-10.1-5.1-14.8c-2-4-4.3-7.9-6.6-11.8 C258.1,250.6,257.3,250.3,257.7,250.8L257.7,250.8z M269,260.9c4.3,7.2,7.7,14.8,10.2,22.8c2.5,8.5,4,17.3,4.4,26.2 c0,0.3,1,0.4,1,0.2c-0.4-8.8-1.9-17.4-4.3-25.8c-2.4-8.2-5.9-16-10.3-23.3C269.9,260.8,269,260.7,269,260.9L269,260.9z M286.3,281.1 c1.8,2.6,2.2,5.5,2.5,8.5c0.1,1.3,0.3,2.6,0.5,4c0.3,1.5,0.9,2.9,1.3,4.4c1.7,6.1,2.4,12.5,1.9,18.9c0,0.2,0.8,0.7,0.8,0.6 c0.5-6.7-0.3-13.4-2.2-19.8c-0.5-1.4-0.9-2.8-1.2-4.3c-0.2-1.4-0.3-2.8-0.5-4.2c-0.1-2.8-1-5.5-2.5-7.8 C286.9,281.3,286.1,280.8,286.3,281.1z M295.9,295c3.9,10,6.1,20.6,6.5,31.3c0,0.3,0.9,0.6,0.9,0.5c-0.3-10.8-2.5-21.4-6.5-31.4 C296.6,295.1,295.7,294.7,295.9,295L295.9,295z M309,313.1l3.8,20.1c0.1,0.4,1,0,0.9-0.4l-3.8-20.1 C309.8,312.4,308.9,312.8,309,313.1L309,313.1z M53,228.1c11,0.1,21.8-2.5,31.6-7.6c0.5-0.3,0-1.1-0.4-0.9c-9.7,5-20.5,7.6-31.4,7.5 C52.2,227.2,52.5,228.1,53,228.1L53,228.1z M61.3,239.7c7.6,1.6,15.3,0.2,22.6-2.2c3.9-1.3,7.6-2.8,11.3-4.4c3.4-1.5,7-2.9,9.9-5.3 c0.4-0.4-0.5-0.4-0.8-0.2c-2.8,2.4-6.3,3.7-9.7,5.2s-6.8,2.9-10.2,4.1c-7.2,2.5-14.9,3.9-22.5,2.4C61.5,239.1,60.7,239.6,61.3,239.7 z M65.4,246.8c13.5,0.9,27.1-2,39.1-8.3c3.5-1.9,6.9-4,10-6.5c-0.1,0.1-0.7,0-1,0.2c-13.6,10.3-30.4,15.4-47.4,14.4 c-0.2,0-1,0.2-0.8,0.3L65.4,246.8z M82.5,261.7c8.2,1,16.1-2.2,23.7-4.9c7.2-2.4,14.1-5.4,20.7-9c3.7-2.1,7.2-4.6,10.3-7.4 c0.2-0.2-0.4-1-0.5-0.9c-5.6,4.9-12,8.8-18.8,11.7c-7.1,3.1-14.3,5.8-21.7,8c-4.6,1.5-9.4,2.1-14.2,1.7 C81.9,260.8,82.2,261.6,82.5,261.7L82.5,261.7z M74.2,258.4c14.8-2.1,28.6-8.2,41.8-15c3.8-2,7.5-4,11.2-6c0.4-0.2-0.6,0-0.7,0 c-16.5,8.9-33.2,18-51.9,20.6C74.3,258.1,73.6,258.5,74.2,258.4L74.2,258.4z M107.8,226c0.6-8.7-1.2-17.4-5.2-25.1 c-0.2-0.3-1.1,0-0.9,0.3c4,7.6,5.8,16.3,5.2,24.9C106.8,226.5,107.8,226.3,107.8,226L107.8,226z M94.4,223.1 c0.2-7.4-2-14.6-6.2-20.7c-0.2-0.2-1.1,0-0.9,0.3c4.2,6,6.4,13.2,6.2,20.6C93.4,223.6,94.4,223.4,94.4,223.1L94.4,223.1z M77.9,217.4c-1.7-5.8-4.7-11.2-8.7-15.8c-0.4-0.5-0.7,0.2-0.4,0.6c3.8,4.4,6.7,9.5,8.3,15.1C77.3,217.7,78.1,218,77.9,217.4 L77.9,217.4z M64.7,211.3c0.1-2.6-0.4-5.2-1.6-7.5c-0.1-0.1-0.3-0.4-0.5-0.4s-0.1,0.3-0.1,0.5c1,2.1,1.5,4.5,1.4,6.8 c0,0.2,0.1,0.5,0.3,0.6C64.4,211.4,64.7,211.5,64.7,211.3L64.7,211.3z M138.5,206c5.6,12.3,10.1,25,13.4,38.1c0.1,0.2,1,0,1-0.1 c-3.3-13.1-7.8-25.8-13.4-38.1C139.4,205.7,138.5,205.9,138.5,206z M187.5,255.5c-1-7.7-2.7-15.2-5.2-22.6c-1.2-3.6-2.6-7.1-4-10.5 c-1.6-3.6-2.7-7.4-3.3-11.4c-0.1-0.5-0.9-0.8-0.9-0.1c0.9,7.4,4.8,14.2,7.1,21.2c2.6,7.6,4.4,15.3,5.4,23.2 C186.8,255.9,187.6,256.2,187.5,255.5L187.5,255.5z M201.8,262.6c-1.5-17.4-7.7-33.8-13.8-49.9c-0.1-0.4-1,0.1-0.9,0.5 c6.1,16.1,12.2,32.5,13.7,49.8C200.9,263.4,201.9,263,201.8,262.6L201.8,262.6z M181.5,254.1c-2-15.3-6.8-30.2-14-43.9 c-0.2-0.3-1.1-0.5-0.9-0.1c7.2,13.6,12,28.4,14,43.7C180.6,254.2,181.6,254.5,181.5,254.1L181.5,254.1z M162.4,245.7 c-0.2-13.8-3.6-27.4-10-39.7c-0.3-0.5-0.7-0.3-0.4,0.2c6.3,12,9.6,25.4,9.8,39C161.8,245.5,162.4,246.3,162.4,245.7L162.4,245.7z M239.6,282.1c-1.5-17.2-6.1-34.1-13.6-49.7c-0.1-0.2-1-0.1-1-0.1c7.5,15.6,12.1,32.4,13.7,49.7 C238.7,282.1,239.7,282.1,239.6,282.1L239.6,282.1z M244.7,283.6c1.1-15.4-1.3-30.9-6.8-45.3c-0.1-0.2-1-0.3-0.9-0.2 c5.5,14.4,7.8,29.8,6.8,45.2C243.7,283.6,244.7,283.8,244.7,283.6L244.7,283.6z M260.2,292.9c3.1-16.8-4.2-33.1-11-48 c-0.1-0.3-1.1-0.3-1,0c6.8,14.9,14,31.1,11,47.9C259.2,293,260.2,293.2,260.2,292.9L260.2,292.9z M91.6,273.2 c11-0.2,21.7-2.5,32.2-5.5c5.2-1.5,10.4-3.1,15.5-4.8c4.1-1.2,8-2.8,11.8-4.8c3.8-2.1,7.1-5.1,8.8-9.2c0.2-0.5-0.8-0.7-1-0.2 c-3.2,7.6-11.7,10.7-18.9,13.1c-10.1,3.3-20.2,6.5-30.6,8.6c-5.9,1.2-11.9,1.9-17.9,2C90.9,272.4,90.9,273.2,91.6,273.2L91.6,273.2z M122.6,301.3c21.3-7.7,41.4-18.4,59.8-31.7c5.1-3.7,10.1-7.6,14.9-11.6c0.5-0.4-0.1-0.8-0.6-0.4c-17.2,14.6-36.3,26.7-56.8,36 c-5.7,2.6-11.5,4.9-17.4,7.1C121.9,300.8,121.9,301.6,122.6,301.3L122.6,301.3z M131.6,309.6c22.6-2.9,43.8-12.1,61.4-26.6 c4.9-4.1,9.5-8.6,13.7-13.4c0.4-0.5-0.4-1-0.8-0.6c-14.9,17.1-34.4,29.6-56.3,36c-6,1.8-12.2,3-18.4,3.8 C130.6,308.9,131,309.7,131.6,309.6z M145.4,321.8c13,0.7,26-2,37.6-7.8c11.9-5.8,22.1-14.4,29.9-25c4.3-5.9,7.7-12.5,10.1-19.4 c0.2-0.5-0.7-1-0.9-0.4c-4.2,12.2-11.6,23.1-21.2,31.6c-9.7,8.7-21.4,14.9-34,18.1c-7.1,1.8-14.4,2.5-21.7,2.1 C144.6,320.9,145,321.8,145.4,321.8L145.4,321.8z M157.5,328.8c12,2.2,23.5-3.5,33.3-9.9c10.5-7.1,20.5-14.9,30-23.4 c5.4-4.8,10.7-9.7,15.9-14.8c0.2-0.2-0.4-1-0.5-0.9c-9,9-18.5,17.4-28.4,25.3c-4.9,3.9-9.9,7.7-15.1,11.3c-4.9,3.6-10.2,6.6-15.8,9 c-6.3,2.6-13.1,3.9-19.8,2.6C157,327.9,157.3,328.8,157.5,328.8L157.5,328.8z M243.5,284.3c-0.2,3.1-3.5,5.3-5.5,7.2l-7.1,6.9 l-14.5,13.9c-4.5,4.4-9,8.8-13.7,13.1c-4.3,4.1-9.1,7.6-14.4,10.4c-6.2,3.1-13,4.8-19.9,5c-0.4,0,0.1,0.9,0.5,0.9 c6.1-0.2,12.1-1.5,17.6-3.9c5.5-2.5,10.6-5.9,15.1-10c4.9-4.3,9.6-9,14.3-13.5l14.7-14.1l8.2-7.9c2.1-2,5.2-4.2,5.5-7.4 C244.3,284.5,243.6,283.8,243.5,284.3L243.5,284.3z M191.8,342.2c5.3,1.2,10.4-1.3,14.7-4.2c4.5-3.1,8.8-6.4,12.8-10 c12.9-11.2,24-24.2,32.9-38.7c0.2-0.4-0.7-0.6-0.9-0.2c-11,17.8-25.2,33.4-42,46c-4.9,3.6-10.8,8.1-17.2,6.7 C191.6,341.6,191.1,342.2,191.8,342.2L191.8,342.2z M211.8,347.5c9.8-1.4,18.3-7.4,25.9-13.3c12.3-9.5,22.8-21,31.2-34 c0.2-0.3-0.6-0.9-0.8-0.6c-10.4,16.5-24.4,30.4-40.9,40.8c-4.9,3-10.2,5.5-15.9,6.4C210.8,346.9,211.5,347.6,211.8,347.5 L211.8,347.5z M231.1,348.2c14.5-6.7,26.8-17.6,35.2-31.2c2.4-3.9,4.5-8,6.2-12.3c0.1-0.2-0.9-0.1-1,0.1 c-5.9,14.7-16.1,27.4-29.2,36.4c-3.8,2.6-7.7,4.8-11.9,6.7C229.9,348.3,230.8,348.3,231.1,348.2L231.1,348.2z M249.9,349 c4.4,1.3,8.2-1.9,11.5-4.4s6.6-5.4,9.8-8.3c6-5.6,11.2-12.1,13.7-20c0.1-0.3-0.5-1.1-0.6-0.6c-2.5,7.8-7.7,14.2-13.6,19.8 c-2.9,2.8-6,5.3-9.1,7.8s-7.3,6.2-11.8,4.9C249.3,348,249.6,348.9,249.9,349L249.9,349z M267.5,347.8c10.5-6.2,19.3-14.9,25.5-25.5 c0-0.1-0.8-0.4-1-0.2c-6.2,10.5-14.9,19.3-25.5,25.4C266.4,347.5,267.2,348,267.5,347.8L267.5,347.8z M278.9,347.4 c6.7-8.4,13.6-16.6,20.7-24.7c0.3-0.4-0.5-0.9-0.8-0.6c-7.2,8.1-14.1,16.4-20.8,24.8C277.7,347.2,278.5,347.7,278.9,347.4 L278.9,347.4z M288.3,346.4c8.5-2.2,16.4-6.6,22.7-12.7c0.2-0.2-0.4-1-0.5-0.9c-6.4,6.1-14.3,10.5-22.8,12.7 C287.6,345.5,288,346.4,288.3,346.4L288.3,346.4z M350.3,437.6c18.3,12.2,40.5,16.3,59.6,27.1c18.1,10.2,31.2,26.8,41.6,44.4 c5.9,9.9,11,20.3,16.1,30.6c0.2,0.4,1.1,0,0.9-0.4c-9-18.5-18.4-37.2-31.7-53c-6.4-7.7-13.9-14.5-22.4-19.9 c-9.3-5.9-19.6-9.9-29.9-13.8c-11.6-4.4-23.3-8.7-33.7-15.7C350.5,436.7,349.8,437.3,350.3,437.6z M449,549c-1-13.9-0.6-27.9,1-41.8 c0.1-0.5-0.8-1-0.9-0.4c-1.6,14-2,28-1,42.1C448.1,549.5,449,549.7,449,549L449,549z M447.5,502.7l-7.2,47.2 c-0.1,0.6,0.9,0.4,0.9-0.1l7.2-47.2C448.5,502.1,447.6,502.2,447.5,502.7L447.5,502.7z M431.9,550.8c-1.8-16-0.8-32.1,2.8-47.8 c1-4.5,2.3-8.9,3.8-13.2c0.2-0.5-0.8-0.8-1-0.3c-5.2,15.3-7.7,31.3-7.5,47.5c0.1,4.6,0.4,9.2,0.9,13.7 C430.9,551.3,431.9,551.4,431.9,550.8L431.9,550.8z M434.9,484.3c-6.2,16.8-10.4,34.2-12.7,51.9c-0.6,5.1-1.1,10.2-1.4,15.2 c0,0.3,0.8,0.8,0.9,0.5c1-17.7,4.1-35.3,9.1-52.3c1.5-5,3.1-9.8,4.9-14.7C435.9,484.6,435,484.1,434.9,484.3L434.9,484.3z M412.4,549.3c-0.8-19.5-1.3-39.8,4.9-58.6c1.7-5.3,4-10.3,6.9-15.1c0.2-0.3-0.4-1.1-0.5-0.8c-10.2,17.1-12.3,37.4-12.2,56.9 c0,5.7,0.2,11.3,0.4,17C411.8,549.1,412.4,549.8,412.4,549.3L412.4,549.3z M428.9,477.7c-0.3,19.6-8.6,37.9-11.2,57.2 c-0.8,5.3-1,10.7-0.6,16.1c0,0.4,1,0.5,1,0c-1.6-19.6,6.4-38.1,10-57c1.1-5.3,1.7-10.7,1.8-16.1 C429.9,477.5,428.9,477.3,428.9,477.7L428.9,477.7z M456,519v27.3c0,0.5,1,0.4,1-0.2v-27.3C457,518.3,456,518.5,456,519L456,519z M417,469.9c-15.3,22.5-23.5,49.2-23.4,76.5c0,0.1,1,0,1-0.2c-0.1-27.2,8.1-53.9,23.4-76.4C418,469.7,417.2,469.7,417,469.9 L417,469.9z M380,545.3c-2.7-22.8-0.1-45.9,7.7-67.5c2.2-6.2,4.9-12.3,8-18.1c0.1-0.2-0.8-0.4-1-0.1c-10.8,20.5-16.5,43.2-16.9,66.3 c-0.1,6.5,0.2,13,1,19.4c0,0.3,1,0.3,1,0.1L380,545.3z M353.5,439c-10,2.8-19,8.2-26.2,15.6c-3.7,3.8-6.8,8.1-9.4,12.7 c-3,5.6-5,11.6-7,17.6c-2.4,7.3-4.5,14.8-6.3,22.3c-0.1,0.4,0.8,0,0.9-0.3c1.5-6.3,3.2-12.5,5.1-18.6c1.8-6.2,4.1-12.4,6.7-18.3 c4.5-9.5,11.5-17.6,20.3-23.3c4.8-3.2,10.2-5.6,15.8-7.1C353.6,439.6,354.1,438.9,353.5,439L353.5,439z M300.4,499.9 c-1-6.2,0.6-12.4,2.9-18.1c2.1-5.1,4.5-10.1,7.2-14.9c5.5-9.5,12.7-18.1,22.4-23.5c5.3-3,11.1-4.8,17.2-5.2c0.6,0,0.1-0.8-0.4-0.8 c-23.6,1.4-38.5,22.8-46.8,42.7c-2.6,6.2-4.6,13-3.5,19.8C299.5,500.2,300.4,500.4,300.4,499.9L300.4,499.9z M356.8,438.9 c11-4.4,22-9.2,33.3-12.9c11.2-3.8,22.9-5.8,34.7-5.9c6.9,0,13.7,0.7,20.4,2c0.3,0.1,1.1-0.3,0.5-0.4c-11.6-2.3-23.5-2.6-35.2-1 c-12,1.6-23.4,5.6-34.6,10.1c-6.5,2.6-13.1,5.2-19.6,7.9C355.7,438.7,356.5,439,356.8,438.9L356.8,438.9z M359.4,443.4 c12-4,24-7.8,36.4-10.3c12.2-2.3,24.5-3.8,36.9-4.6c7-0.5,14-0.9,21-1.3c0.6,0,0.6-0.8,0-0.7c-25.1,1.4-50.3,2.9-74.6,9.9 c-6.8,1.9-13.5,4.1-20.1,6.4C358.4,443,359,443.6,359.4,443.4L359.4,443.4z M368.9,446.1c22.9-4.8,45.4-12.1,68.7-14.9 c6.5-0.8,13.1-1.2,19.7-1.2c0.3,0,1-0.6,0.4-0.7c-23.6-0.2-46.5,6-69.2,11.6c-6.4,1.6-12.9,3.1-19.4,4.5 C368.8,445.6,368.2,446.2,368.9,446.1L368.9,446.1z M377.2,450.2c23.9,1.8,46.2-9.2,69.8-10.3c6.6-0.4,13.3,0.3,19.7,2 c0.6,0.2,0.5-0.8,0-0.9c-23.3-6.6-46.7,3.5-69.6,7.1c-6.6,1.2-13.4,1.6-20.1,1.2C376.4,449.3,376.7,450.2,377.2,450.2L377.2,450.2z M390.6,456.6c20.2,1,39.1-7.9,58.9-10c5.6-0.6,11.2-0.5,16.8,0.3c0.5,0.1,1-0.7,0.4-0.8c-20-3.3-39.2,5.1-58.6,8.4 c-5.7,1.1-11.6,1.5-17.4,1.2C390.3,455.8,390,456.6,390.6,456.6L390.6,456.6z M408,463.4c20.5-2.8,41.1-4,61.8-3.5 c0.2,0,0.9-0.4,0.8-0.4c-20.7-0.4-41.4,0.7-62,3.5C408.4,463,407.6,463.4,408,463.4L408,463.4z M416.1,468.5 c8.8,0.3,17.1-3.2,25.6-4.9c9.6-1.8,19.3-2.1,29-1c0.2,0,1-0.3,0.8-0.3c-8.9-1.1-17.9-0.9-26.8,0.5c-4.3,0.7-8.6,1.7-12.8,2.9 c-5,1.3-10,2.6-15.1,2.4C416.7,468.2,415.9,468.5,416.1,468.5L416.1,468.5z M426.6,476c14.9-1.6,29.9-4.8,45-2.9 c0.2,0,1-0.3,0.8-0.4c-15.2-1.9-30.3,1.3-45.4,2.9C426.8,475.6,426,476.1,426.6,476L426.6,476z M429.5,479.4 c14.9-1.2,29.8-0.6,44.5,1.7c0.5,0.1,0.3-0.9-0.1-0.9c-14.8-2.3-29.8-2.9-44.7-1.7C428.8,478.5,429.1,479.5,429.5,479.4L429.5,479.4 z M433,484c13.7-0.7,27.4,0.3,40.8,2.9c0.3,0-0.3-0.6-0.5-0.7c-13.5-2.6-27.2-3.6-40.9-2.9C432.2,483.3,432.7,484,433,484L433,484z M437.1,488.7c12.4-0.5,24.5,1.8,36.6,4.2c0.2,0-0.1-0.9-0.3-0.9c-12.1-2.4-24.3-4.8-36.7-4.2C436.5,487.8,436.8,488.7,437.1,488.7z M441.7,492.7c10.8-0.2,21.1,4.4,31.9,3.6c0.2,0,0.9-0.5,0.7-0.5c-10.8,0.9-21.1-3.8-31.9-3.6C442.3,492.2,441.6,492.7,441.7,492.7 L441.7,492.7z M443.3,498.8c10.1-0.6,20.2,0.5,29.9,3.2c0.1,0-0.1-0.8-0.4-0.9c-9.7-2.8-19.8-3.8-29.9-3.2 C442.8,497.9,443.1,498.8,443.3,498.8z M447,502.6c8.4,0.1,16.8,1.2,25,3.2c0.3,0.1,0.9-0.4,0.9-0.4c-8.2-2-16.7-3.1-25.1-3.2 C447.5,502.1,446.8,502.6,447,502.6L447,502.6z M450.6,508c7.2-0.5,14.4,0.5,21.3,2.9c0.1,0-0.4-0.5-0.6-0.6 c-6.9-2.4-14.1-3.4-21.4-2.9C449.8,507.4,450.3,508,450.6,508L450.6,508z M454.6,513.8c5.6,0,11.1,0.5,16.6,1.5 c0.6,0.1,0.1-0.7-0.3-0.8c-5.5-1-11-1.5-16.6-1.5C453.7,513,454.2,513.8,454.6,513.8z M460.2,523.9c3.5,0,7,0.9,10,2.7 c0.2,0.1,0.5,0.1,0.7,0c0.1-0.1,0.2-0.3,0.1-0.4c0,0-0.1-0.1-0.1-0.1c-3.3-1.9-7-2.9-10.8-2.9C459.6,523.2,459.5,523.9,460.2,523.9 L460.2,523.9z M399.6,460.2c-12.7,26.4-18.6,55.5-17,84.7c0,0.3,0.8,0.7,0.8,0.5c-1.6-29.2,4.3-58.3,17-84.6 C400.5,460.6,399.6,460.1,399.6,460.2L399.6,460.2z M387.1,548.2c-1.8-29.3,4.9-58.5,19.2-84.1c0.1-0.3-0.5-1-0.6-0.8 c-14.3,25.7-21,55-19.2,84.4C386.5,548,387.2,548.8,387.1,548.2L387.1,548.2z M412.3,466.9c-5.6,9.3-11,18.7-14.9,28.9 c-2,5-3.4,10.1-4.4,15.4c-0.8,5.4-1.2,10.8-1.2,16.2c-0.1,6.6-0.2,13.2-2,19.6c-0.1,0.5,0.8,0.7,1,0.2c3.1-10.9,1.3-22.3,2.9-33.4 c1.5-10.8,5.6-21,10.6-30.6c2.8-5.4,5.9-10.6,9-15.9C413.5,466.8,412.6,466.4,412.3,466.9L412.3,466.9z M401.8,548 c-0.7-26.8,6-53.2,19.4-76.4c0,0.1-0.9-0.2-1,0c-10.4,18-16.8,38-18.8,58.7c-0.6,5.9-0.8,11.8-0.6,17.7 C400.8,548.1,401.8,548.1,401.8,548L401.8,548z M390.9,456.2c-7.1,8-11.3,18-14.3,28.1c-3.5,11.6-6.1,23.5-8.4,35.4 c-1.4,7-2.6,14-3.7,21.1c-0.1,0.5,0.9,0.6,1,0.1c1.9-12.3,4.2-24.5,7-36.6c2.5-10.9,5-22.1,9.6-32.4c2.4-5.5,5.6-10.7,9.6-15.3 C392.1,456.2,391.2,455.8,390.9,456.2L390.9,456.2z M358.5,538.5c1.4-23.7,7.4-46.9,17.6-68.3c2.8-5.9,5.8-11.7,7.7-17.9 c0-0.1-0.9-0.2-1,0c-1.8,5.8-4.5,11.3-7.1,16.8c-2.5,5.1-4.8,10.4-6.8,15.7c-6.5,17.2-10.3,35.3-11.4,53.7 C357.5,538.7,358.5,538.7,358.5,538.5L358.5,538.5z M377.4,450.7c-8.5,21.2-15.9,42.8-22.2,64.8c-1.8,6.2-3.5,12.5-5.1,18.8 c0-0.1,0.9,0,1-0.3c5.6-22.1,12.4-44,20.3-65.4c2.2-6.1,4.6-12.1,7-18.2C378.4,450.5,377.5,450.4,377.4,450.7L377.4,450.7z M368.7,448.2c-2.7,11-6.4,21.8-9.7,32.7l-10.2,33l-5.8,18.8c-0.1,0.2,0.8,0.7,0.8,0.7c6.8-22.1,13.6-44.2,20.5-66.3 c1.9-6,3.8-12.1,5.3-18.2C369.6,448.6,368.7,448.2,368.7,448.2L368.7,448.2z M360,442c-4.1,3.1-6.7,7.7-8.8,12.3 c-2.5,5.5-4.7,11.2-6.8,16.9c-4.2,11.6-7.6,23.4-10.1,35.5c-1.5,6.7-2.7,13.5-3.6,20.3c-0.1,0.5,0.7,1,0.8,0.3 c3.3-23.9,9.8-47.3,19.2-69.5c2.3-5.5,5-11.2,9.9-15C360.9,442.6,360.4,441.7,360,442L360,442z M321.2,521.5 c2.3-23,9.8-45.2,21.9-64.9c3.4-5.5,7.2-10.8,11.2-15.9c0.3-0.4-0.5-1-0.8-0.6c-18.8,23.2-30.3,51.4-33.2,81.1 C320.3,521.7,321.2,522.1,321.2,521.5L321.2,521.5z"/></g></svg>